<svg xmlns="http://www.w3.org/2000/svg" xmlns:xlink="http://www.w3.org/1999/xlink" viewBox="0 0 1300 1000"><defs><style>.cls-1{fill:none;}.cls-2{clip-path:url(#clip-path);}.cls-3{fill:#fff;}.cls-4{fill:#a1c5ff;}.cls-5{fill:#999;}.cls-6{fill:#666;}.cls-7{fill:#2f6bff;}.cls-8{fill:#ffd445;}.cls-9{fill:#ededed;}.cls-10{fill:#00d495;}.cls-11{fill:#fff97f;}.cls-12{fill:#ff5f68;}.cls-13{fill:#f2f2f2;}.cls-14{fill:#4d4d4d;}</style><clipPath id="clip-path"><rect class="cls-1" width="1300" height="1000"/></clipPath></defs><g id="レイヤー_2" data-name="レイヤー 2"><g id="レイヤー_3" data-name="レイヤー 3"><g class="cls-2"><rect class="cls-3" width="1300" height="1000"/><path class="cls-4" d="M919.91,1000H896.06C846,922.85,784.91,828.36,745.64,765.92c-36-57.31-59.26-116.4-69-175.63-9-54.85-6.19-107.4,8.35-156.2C706.45,362.16,743.93,295,780.17,230,821,156.89,862.82,81.87,881.23,0h20.51c-18.43,86.19-61.82,164-104.1,239.76-35.72,64-72.66,130.22-93.46,200-29,97.43-8.3,209.47,58.38,315.47C803.66,820.59,868.64,921.09,919.91,1000Z"/><path class="cls-5" d="M672.42,439c21-72,58-140,93.9-205.76,7.64-14,15.32-28.12,22.89-42.31a10,10,0,0,1,5.33-4.67L1295.89,0h-28.73L800.4,173.39a1,1,0,0,1-1.23-1.4c20.35-39.17,39.28-79.26,53.6-121a10,10,0,0,1,6-6.17L979.36,0H950.64L860.08,33.64a1,1,0,0,1-1.3-1.23q4.89-16,8.74-32.41H857.23q-4.14,17.27-9.48,34.13a10,10,0,0,1-6,6.34L723.56,84.35A2,2,0,0,1,721,83.18L690.09,0H679.41L711.6,86.67a2,2,0,0,1-1.17,2.57L587.12,135a2,2,0,0,1-2.57-1.17L534.83,0H524.16l51,137.34a2,2,0,0,1-1.17,2.57L223.31,270.19a2,2,0,0,1-2.41-.84L57.05,0H10.23L182.31,282.87a2,2,0,0,1-1,2.91L0,353.13V363.8l187.31-69.59a2,2,0,0,1,2.41.84L512,824.8a2,2,0,0,1-1,2.91L47.16,1000H162L532.86,862.24a2,2,0,0,1,2.41.84L618.56,1000h46.82L565.92,836.51a2,2,0,0,1,1-2.91l156.55-58.16a2,2,0,0,1,2.4.82c37.49,60.87,93.08,149,140.5,223.74h11.83c-49.38-77.85-108.49-171.51-146.82-233.87C663.89,656.35,643,540.16,672.42,439Zm169-386c-15,42.43-34.73,83.23-55.74,123.14a10,10,0,0,1-5.37,4.71L625.5,238.35a2,2,0,0,1-2.57-1.17L589.43,147a2,2,0,0,1,1.18-2.57l249.54-92.7A1,1,0,0,1,841.45,53ZM229.32,278.62,577.49,149.29a2,2,0,0,1,2.57,1.17l33.49,90.2a2,2,0,0,1-1.17,2.57L281.65,366.09a2,2,0,0,1-2.41-.84l-50.93-83.72A2,2,0,0,1,229.32,278.62Zm58.34,95.9,486.7-180.8a1,1,0,0,1,1.23,1.42q-9,16.73-18.05,33.28C722.61,292.48,686.55,358.65,665,429a10,10,0,0,1-6.08,6.48L385.62,537a2,2,0,0,1-2.41-.84L286.65,377.43A2,2,0,0,1,287.66,374.52Zm270.85,449.8-167.89-276a2,2,0,0,1,1-2.91l265-98.45a2,2,0,0,1,2.63,2.36c-11.18,45.41-12.76,93.87-4.67,144.28,9.21,57.41,30.68,114.74,63.86,170.49a2,2,0,0,1-1,2.89L560.92,825.16A2,2,0,0,1,558.51,824.32Z"/><path class="cls-6" d="M644.89,1000h-5.84L553.11,858.73a2.5,2.5,0,1,1,4.27-2.6Z"/><path class="cls-6" d="M530.49,819.24a2.51,2.51,0,0,1-2.14-1.2l-319-524.41a2.5,2.5,0,1,1,4.27-2.59l319,524.4a2.5,2.5,0,0,1-2.13,3.8Z"/><path class="cls-6" d="M200.36,274.06a2.58,2.58,0,0,1-1.3.36,2.51,2.51,0,0,1-2.14-1.2L30.71,0h5.85L201.19,270.62A2.5,2.5,0,0,1,200.36,274.06Z"/><path class="cls-6" d="M519.07,848.7,111.77,1000H97.43l419.9-156a2.5,2.5,0,1,1,1.74,4.68Z"/><path class="cls-7" d="M324.54,398.21l-5.09-31.83-4,7.31-52-85.43a5,5,0,1,0-8.54,5.19l52,85.43-8.32.17Z"/><path class="cls-7" d="M443.08,496.29l-32.23-1,6.42,5.29-23.79,8.84-24.88-40.9a5,5,0,0,0-8.55,5.2l27,44.42a5,5,0,0,0,4.27,2.41,4.82,4.82,0,0,0,1.74-.32l27.66-10.27-1.41,8.19Z"/><path class="cls-7" d="M700.41,398.1a5,5,0,0,0-5.15-1l-81.35,30.22a5,5,0,1,0,3.49,9.37l72.12-26.79c-4.81,17.73-8.81,36-11.94,54.39l-6.55-5.2,7.74,31.3,16.39-27.77-7.67,3.07a561.45,561.45,0,0,1,14.31-62.5A5,5,0,0,0,700.41,398.1Z"/><path class="cls-7" d="M761.7,777.66c-12.56-20.43-24.27-41.32-34.8-62.07a5,5,0,0,0-8.92,4.53c9.76,19.23,20.52,38.57,32,57.56L713.75,791l1.44-8.19-23.82,21.73,32.23,1.16-6.41-5.31,42-15.41a5,5,0,0,0,3-3.06A5,5,0,0,0,761.7,777.66Z"/><path class="cls-7" d="M588.28,842.2a5,5,0,0,0-6.41-3l-58.93,21.64-23.3-38.3,8.32-.17L482,803.24l5.09,31.84,4-7.31,25.43,41.81a5,5,0,0,0,4.28,2.4,5,5,0,0,0,1.72-.31l62.78-23A5,5,0,0,0,588.28,842.2Z"/><path class="cls-7" d="M421.81,704.17,338.2,566.73l8.31-.17L320.58,547.4l5.1,31.83,4-7.31,83.62,137.45a5,5,0,0,0,4.27,2.4,5,5,0,0,0,4.27-7.6Z"/><path class="cls-8" d="M728.4,768c-68-110.64-89.09-227.83-59.34-330a1.5,1.5,0,0,0-2-1.82L379.44,543,206.17,258.2A5.76,5.76,0,1,0,202,260a5.7,5.7,0,0,0,1.61-.23L377.52,545.64a1.51,1.51,0,0,0,1.81.63L665.36,440c-13.45,47.85-15.9,99.32-7.29,153C667.52,652,690,710.82,724.89,768L532.12,838.76,236.53,352.87a1.49,1.49,0,0,0-1.8-.63L214,360l1.15-6.63-14.24,13.1,19.33.62L215,362.76l19.59-7.27L530.19,841.37a1.5,1.5,0,0,0,1.29.72A1.52,1.52,0,0,0,532,842l195.65-71.84a1.5,1.5,0,0,0,.76-2.19Z"/><path class="cls-9" d="M551.06,832.16H534.78a5,5,0,1,0,0,10h16.28a5,5,0,1,0,0-10Z"/><circle class="cls-10" cx="534.81" cy="837.18" r="3.6"/><circle class="cls-11" cx="542.92" cy="837.18" r="3.6"/><circle class="cls-12" cx="551.03" cy="837.18" r="3.6"/><path class="cls-9" d="M213.45,277.18H197.17a5,5,0,1,0,0,10h16.28a5,5,0,0,0,0-10Z"/><circle class="cls-10" cx="197.2" cy="282.2" r="3.6"/><circle class="cls-11" cx="205.31" cy="282.2" r="3.6"/><circle class="cls-12" cx="213.42" cy="282.2" r="3.6"/><polygon class="cls-13" points="1132.97 0 18.24 414.08 0 420.86 0 399.52 11.27 395.33 1075.52 0 1132.97 0"/><polygon class="cls-14" points="18.24 414.08 0 420.86 0 399.52 11.27 395.33 18.24 414.08"/><path class="cls-14" d="M119.62,376.42l-7-18.75L214,320l7,18.75ZM322.39,301.1l-7-18.75,101.38-37.66,7,18.74Zm202.77-75.33-7-18.75,101.38-37.66,7,18.75Zm202.78-75.32-7-18.75L822.35,94l7,18.75ZM930.7,75.13l-7-18.75,101.39-37.66,7,18.75Z"/><path class="cls-14" d="M643.8,139.11l-11.39,4.22-.43-1.17,5-1.86-.52-1.4,1.3-.48.52,1.4,5.08-1.88ZM640.59,146l1.15,3.09c.24.65.22,1.05-.21,1.4a8.55,8.55,0,0,1-2.3,1.05,5.5,5.5,0,0,0-.82-1c.79-.26,1.62-.57,1.83-.66s.28-.17.22-.34l-1.14-3.06-3.49,1.3-1.48-4,8.4-3.11,1.48,4Zm-2.66,2.19a12.72,12.72,0,0,1-1.48,3.86,6.89,6.89,0,0,0-1.27-.35,9.14,9.14,0,0,0,1.37-3.45Zm-1.27-1.92,5.89-2.19-.69-1.86L636,144.44Zm7-.66a23.85,23.85,0,0,1,3.45,1.9l-1,1.06a21.78,21.78,0,0,0-3.42-2Z"/><path class="cls-14" d="M660,141.86l.45,1.21-11.72,4.35-.45-1.21,5.19-1.92-1.38-3.72L648.11,142l-.45-1.19,4-1.47-1.23-3.32-4.54,1.68-.44-1.19,10.39-3.85.45,1.19-4.57,1.69,1.23,3.32,4.11-1.52.44,1.19-4.11,1.53,1.38,3.71Z"/><path class="cls-14" d="M667.84,128.92c-.53,3.69-3.66,6.85-6.94,8.94a3.85,3.85,0,0,0-1-.84,17.93,17.93,0,0,0,4.12-3.28,13.22,13.22,0,0,0-2.56-.57c-.42.47-.89.94-1.41,1.42a4.11,4.11,0,0,0-1.15-.61,11.46,11.46,0,0,0,3.74-4.85l1.46-.2c-.14.35-.29.71-.46,1.06l3-1.12.18-.13Zm3.53,3.9c-.19,4.42-3.53,7.46-7.64,9.69a3.91,3.91,0,0,0-.94-.92,17.88,17.88,0,0,0,4.92-3.48,13.63,13.63,0,0,0-2.85-.75c-.52.53-1.09,1.07-1.73,1.61a3.63,3.63,0,0,0-1.08-.67,12.69,12.69,0,0,0,4.4-5.49l1.46-.18a11.1,11.1,0,0,1-.55,1.25l2.85-1.06.19-.13Zm-8.56-1.35c-.15.24-.33.48-.51.72a12.48,12.48,0,0,1,2.59.54,9.08,9.08,0,0,0,1.39-2.54Zm3.64,3.94c-.22.32-.45.63-.71,1a14,14,0,0,1,2.84.71,7.36,7.36,0,0,0,1.32-2.94Z"/><path class="cls-14" d="M673.36,127.51l1.13,3.07c.76,2,1.7,5.1,1.31,7.47a5.06,5.06,0,0,0-1.19-.4c.31-2.17-.55-4.77-1.24-6.65l-1.52-4.09,4.81-1.79-.37-1,1.26-.47.37,1,4.89-1.81.37,1Zm3.71,3.16-.53-1.43a6.22,6.22,0,0,1-1,1.87,3.76,3.76,0,0,0-.86-.46,5.93,5.93,0,0,0,1.33-2.18l-1.5.55-.31-.84,1.74-.64-.3-.83.89-.33.31.82,1.68-.62.31.84-1.68.62,0,.15c.49.07,1.69.28,2,.36l-.34.87c-.27-.12-.86-.31-1.39-.47l.52,1.39Zm4.58,2.06,4.29-1.59.31.81-4.3,1.6.3.78c.22.61.17.92-.26,1.23a10.39,10.39,0,0,1-2.29,1,4.12,4.12,0,0,0-.71-.8c.77-.26,1.64-.58,1.86-.66s.27-.17.19-.37l-.28-.76-4.32,1.6-.3-.81,4.32-1.6-.27-.74-3.65,1.35-.3-.81,3.64-1.35-.24-.67c-1.07.47-2.17.92-3.19,1.31a2.94,2.94,0,0,0-.5-.66,51.31,51.31,0,0,0,6.84-3.17l1,.41a31,31,0,0,1-3,1.57l.28.76,3.7-1.37.3.81-3.7,1.38Zm0-3.89-.5-1.36a5.87,5.87,0,0,1-1,1.86,4.74,4.74,0,0,0-.87-.44,5.4,5.4,0,0,0,1.32-2.13l-1.4.52-.31-.84,1.68-.63-.3-.82.91-.35.31.83,1.93-.71.31.84-1.61.59a6.75,6.75,0,0,0,2.45.74,3.28,3.28,0,0,0-.39.93,7.55,7.55,0,0,1-2.09-.77l.52,1.4Z"/><path class="cls-14" d="M689.12,126.85l2,5.45-1.08.4-2-5.37c-.69.3-1.33.6-1.9.84l-.51-1,.9-.4c.12-.37.24-.79.35-1.22a13.75,13.75,0,0,0-2.24-1.27l.31-1,.48.21a15.87,15.87,0,0,0,.18-2.78h1.22c-.13,1.06-.3,2.32-.51,3.22.32.17.6.33.84.49a25.29,25.29,0,0,0,.47-2.73l1.18.08c-.31,1.44-.73,3.18-1.18,4.59l1.51-.67a10.6,10.6,0,0,0-.86-.8l.73-.69a11.53,11.53,0,0,1,2.23,2.27l-.78.78a7.62,7.62,0,0,0-.53-.72Zm-1,1.63a13,13,0,0,1,.38,3.65,6,6,0,0,0-1.05-.1,10.6,10.6,0,0,0-.41-3.35Zm10.28-4.35c-.42.77-.9,1.6-1.34,2.26a5.66,5.66,0,0,0,2.81,1,4.61,4.61,0,0,0-.37,1.26,6.72,6.72,0,0,1-3.67-1.88l.8,2.15c.2.55.24.9-.08,1.21a4.66,4.66,0,0,1-1.63.81,4.78,4.78,0,0,0-.71-.93c.53-.18,1-.37,1.18-.44s.18-.11.13-.25l-1.77-4.78-2.57.95-1.75-4.71,2.1-.78a12.57,12.57,0,0,0,0-1.51l1.46-.28c0,.45-.12.91-.19,1.33l2.9-1.08,1.75,4.71-2.59,1,0,.09a9.38,9.38,0,0,0,1.35,1.56,15.77,15.77,0,0,0,.9-2Zm-7.72,3.16a10.82,10.82,0,0,1,1.5,2l-.82.64a9.7,9.7,0,0,0-1.46-2.09Zm.56-5,4-1.49-.35-.94-4,1.48Zm2.83,3.57a6.65,6.65,0,0,1-1.17,5.26,4.05,4.05,0,0,0-1.07-.56,5.12,5.12,0,0,0,1.23-3.45l-1.55.57-.38-1,2-.75.16-.08Zm-2.15-1.72,4-1.49-.35-.94-4,1.48Z"/><path class="cls-14" d="M700.16,125.39l.73-1.34a25.06,25.06,0,0,1,4,1.82l-.76,1.36A24.48,24.48,0,0,0,700.16,125.39Z"/><path class="cls-14" d="M714.58,113.81a16.81,16.81,0,0,1-.18,6.61,5.41,5.41,0,0,0-1.41-.21,13.53,13.53,0,0,0,.12-6.14Zm2.14-4.49,3.8,10.24c.3.82.22,1.25-.21,1.65a8.93,8.93,0,0,1-2.53,1.19,6.42,6.42,0,0,0-1-1.09c.91-.29,1.87-.65,2.14-.76s.33-.23.23-.49l-3.8-10.25Zm4.06,1.79a22.42,22.42,0,0,1,4.67,4.86l-1.13,1a23.82,23.82,0,0,0-4.55-5Z"/><path class="cls-14" d="M734.77,103.42l4.09,11-1.26.47-.29-.8-8.21,3,.3.8-1.21.45-4.09-11Zm-9,4.68,1.22,3.28,3.41-1.27-1.22-3.28Zm2.91,7.83,3.41-1.27-1.24-3.33-3.41,1.27Zm5.29-10.88-3.55,1.32,1.21,3.28,3.56-1.32Zm2.91,7.84-1.24-3.34-3.55,1.32,1.23,3.34Z"/><path class="cls-14" d="M739.4,105.08c-.19.34-.42.66-.65,1a4.4,4.4,0,0,0-1.2-.57,10,10,0,0,0,2.14-5l1.4-.24c-.05.31-.1.61-.17.92l3.23-1.2.18-.11,1,.22a13.74,13.74,0,0,1-.48,2l2.81-1,1.75,4.74-4.54,1.68a8.89,8.89,0,0,1,2,.43l-.5,1.16a9.35,9.35,0,0,0-2.85-.6l.25-.57-3.2,1.19-.37-1,7.65-2.84-.34-.92L740.31,107l-.35-.93,7.23-2.68-.33-.89-7.4,2.74Zm1.18-2.63a10.43,10.43,0,0,1-.56,1.46l3.46-1.28a10.51,10.51,0,0,0,.37-1.39Zm-.35,10.32a4.58,4.58,0,0,0,.93-3.06h1.23a5.28,5.28,0,0,1-.87,3.42Zm7.22-2.76c.5-.19.53-.39.14-1.59a3.5,3.5,0,0,0,1.21,0c.47,1.64.26,2.16-.84,2.56l-2.18.81c-1.43.53-1.88.33-2.29-.76l-.65-1.77,1.18-.44.65,1.76c.12.32.26.33.85.11Zm1.54-3.38a13,13,0,0,1,3.33,1.75l-.87,1a12.75,12.75,0,0,0-3.26-1.84Z"/><path class="cls-14" d="M759.74,94.78c-.53,3.69-3.65,6.85-6.94,8.94a4,4,0,0,0-.95-.84A18.09,18.09,0,0,0,756,99.6,13.05,13.05,0,0,0,753.4,99c-.42.47-.89.94-1.41,1.42a3.72,3.72,0,0,0-1.15-.6A11.58,11.58,0,0,0,754.58,95l1.46-.2c-.14.35-.29.7-.46,1l3-1.12.18-.13Zm3.54,3.9c-.2,4.42-3.54,7.46-7.65,9.69a3.91,3.91,0,0,0-.94-.92,17.88,17.88,0,0,0,4.92-3.48,13.47,13.47,0,0,0-2.85-.75,22.91,22.91,0,0,1-1.73,1.61,3.63,3.63,0,0,0-1.08-.67,12.69,12.69,0,0,0,4.4-5.49l1.47-.18a13.43,13.43,0,0,1-.56,1.25l2.85-1.06.19-.13Zm-8.56-1.35c-.16.24-.33.48-.52.72a13.44,13.44,0,0,1,2.6.54,9,9,0,0,0,1.38-2.54Zm3.63,3.94c-.22.32-.45.63-.7,1a13.92,13.92,0,0,1,2.83.71,7.52,7.52,0,0,0,1.33-2.94Z"/><path class="cls-14" d="M765.27,93.37l1.14,3.07c.75,2,1.69,5.1,1.31,7.47a5.68,5.68,0,0,0-1.2-.41c.32-2.16-.55-4.77-1.24-6.64l-1.52-4.1L768.58,91l-.37-1,1.26-.47.37,1,4.88-1.81.38,1ZM769,96.53l-.53-1.43a6,6,0,0,1-1,1.86,4.19,4.19,0,0,0-.86-.46,5.69,5.69,0,0,0,1.33-2.17l-1.5.55-.31-.84,1.74-.65-.3-.82.89-.33.31.82,1.68-.62.31.84L769,93.9l.05.15c.49.07,1.69.28,2,.35l-.35.88c-.27-.12-.86-.31-1.39-.47l.52,1.39Zm4.58,2.06,4.3-1.59.3.81-4.29,1.59.29.79c.22.61.18.92-.26,1.23a9.89,9.89,0,0,1-2.28,1,4.44,4.44,0,0,0-.72-.79c.77-.26,1.64-.58,1.86-.66s.27-.17.19-.37l-.28-.76-4.32,1.6-.3-.81L772.37,99l-.27-.73-3.65,1.35-.3-.81,3.65-1.35-.25-.67c-1.07.47-2.17.92-3.19,1.31a2.94,2.94,0,0,0-.5-.66,52.11,52.11,0,0,0,6.85-3.17l1,.41a32.51,32.51,0,0,1-3,1.57L773,97l3.7-1.37.3.81-3.7,1.38Zm0-3.89-.5-1.37a5.82,5.82,0,0,1-1,1.87,4.18,4.18,0,0,0-.87-.44,5.47,5.47,0,0,0,1.32-2.13l-1.39.51-.32-.84,1.68-.62-.3-.83.92-.34.3.83,1.93-.72.31.84-1.61.6a6.81,6.81,0,0,0,2.45.74,3.26,3.26,0,0,0-.38.93A7.53,7.53,0,0,1,774,93l.52,1.41Z"/><path class="cls-14" d="M781,92.71l2,5.45-1.07.4-2-5.37c-.7.3-1.33.6-1.9.84l-.51-1,.9-.39c.11-.38.24-.8.35-1.22a13.47,13.47,0,0,0-2.25-1.28l.32-1,.48.21a16.72,16.72,0,0,0,.17-2.78h1.23c-.13,1.07-.31,2.33-.51,3.22a8.88,8.88,0,0,1,.84.5,25.67,25.67,0,0,0,.46-2.74l1.18.08c-.3,1.44-.73,3.18-1.18,4.59l1.52-.67c-.27-.28-.59-.56-.87-.8l.73-.68a11.24,11.24,0,0,1,2.23,2.26l-.77.78c-.14-.22-.32-.45-.53-.72Zm-1,1.63a12.65,12.65,0,0,1,.38,3.65,5.94,5.94,0,0,0-1.05-.1,10.77,10.77,0,0,0-.4-3.34ZM790.25,90a25.43,25.43,0,0,1-1.34,2.26,5.6,5.6,0,0,0,2.81,1,5.44,5.44,0,0,0-.37,1.26,6.69,6.69,0,0,1-3.66-1.88l.79,2.15c.21.55.25.9-.07,1.21a4.8,4.8,0,0,1-1.64.82,4.89,4.89,0,0,0-.7-.94c.53-.18,1-.36,1.18-.44s.18-.11.13-.25l-1.78-4.78-2.57.95-1.75-4.71,2.1-.78a10.79,10.79,0,0,0,0-1.51l1.47-.28c-.06.46-.13.91-.2,1.33l2.9-1.08L789.29,89l-2.58,1,0,.09a9.38,9.38,0,0,0,1.35,1.56,13.32,13.32,0,0,0,.9-2Zm-7.72,3.16a10.71,10.71,0,0,1,1.5,2l-.82.64a9.7,9.7,0,0,0-1.46-2.09Zm.56-5,4-1.49-.36-.94-4,1.48Zm2.84,3.57a6.69,6.69,0,0,1-1.17,5.26,4.43,4.43,0,0,0-1.08-.56,5.07,5.07,0,0,0,1.23-3.45l-1.55.57-.37-1,2-.74.17-.09ZM783.78,90l4-1.49-.35-.94-4,1.48Z"/><path class="cls-14" d="M144.17,531.05a1.51,1.51,0,0,0-1.93-.88l-110.35,41a3.38,3.38,0,1,0,1,2.81l110.34-41A1.51,1.51,0,0,0,144.17,531.05Z"/><path class="cls-14" d="M87.88,488.73a12.54,12.54,0,0,1-2.73,3.11,7,7,0,0,0-1.07-.77,9.07,9.07,0,0,0,2.48-2.76Zm8.68-6.51H84.4V481h5.36v-1.5h1.38V481h5.42Zm-5.42,5.39v3.3c0,.7-.15,1.06-.68,1.24a8.51,8.51,0,0,1-2.53.18,5.12,5.12,0,0,0-.42-1.23c.84,0,1.73,0,1.95,0s.32-.06.32-.24v-3.27H86.06v-4.26h9v4.26Zm-3.78-1.12h6.29v-2H87.36Zm6.81,1.82a24.39,24.39,0,0,1,2.57,3l-1.27.66A21,21,0,0,0,93,488.89Z"/><path class="cls-14" d="M110.76,490.44v1.29H98.25v-1.29h5.53v-4H99.57V485.2h4.21v-3.54H98.94v-1.28H110v1.28h-4.87v3.54h4.38v1.28h-4.38v4Z"/><path class="cls-14" d="M122.62,481c-1.78,3.28-5.82,5.16-9.63,6a4.16,4.16,0,0,0-.6-1.12,17.58,17.58,0,0,0,5-1.64,13.94,13.94,0,0,0-2.2-1.43,17.12,17.12,0,0,1-1.82.84,4,4,0,0,0-.87-1,11.49,11.49,0,0,0,5.2-3.25l1.44.32c-.25.28-.52.56-.8.83h3.23l.2-.06Zm2,4.89c-1.73,4.08-5.91,5.77-10.55,6.43a4.18,4.18,0,0,0-.56-1.19,17.82,17.82,0,0,0,5.83-1.55,14.09,14.09,0,0,0-2.41-1.7,23.68,23.68,0,0,1-2.19.91,4.15,4.15,0,0,0-.78-1,12.5,12.5,0,0,0,6-3.61l1.45.33c-.3.34-.61.66-1,1h3l.23-.06ZM117,481.69a8.42,8.42,0,0,1-.73.49,13.54,13.54,0,0,1,2.25,1.41,9,9,0,0,0,2.18-1.9Zm2,5c-.32.22-.65.43-1,.64a13.86,13.86,0,0,1,2.41,1.65,7.29,7.29,0,0,0,2.27-2.29Z"/><path class="cls-14" d="M128.27,481.65v3.27c0,2.17-.18,5.38-1.38,7.47a4.91,4.91,0,0,0-1-.8c1-1.92,1.15-4.66,1.15-6.67v-4.37h5.14v-1.06h1.35v1.06h5.21v1.1Zm6,7.78h4.59v.87h-4.59v.84c0,.65-.15.93-.67,1.07a10.52,10.52,0,0,1-2.49.15,4.85,4.85,0,0,0-.39-1c.81,0,1.73,0,2,0s.31-.07.31-.28v-.82h-4.61v-.87H133v-.78h-3.89v-.87H133v-.71c-1.16.07-2.35.11-3.45.12a3.07,3.07,0,0,0-.23-.8,52.22,52.22,0,0,0,7.52-.58l.8.72a29.66,29.66,0,0,1-3.37.44v.81h4v.87h-4Zm-3.58-3.53v-1.52a5.94,5.94,0,0,1-1.63,1.38,4,4,0,0,0-.64-.72,5.78,5.78,0,0,0,2-1.59h-1.59v-.89h1.86v-.89h.95v.89h1.79v.89H131.6v.16c.44.23,1.49.85,1.77,1l-.63.7c-.21-.21-.7-.58-1.14-.92v1.48Zm4.93-.12v-1.46a5.7,5.7,0,0,1-1.63,1.39,4.41,4.41,0,0,0-.65-.72,5.34,5.34,0,0,0,2-1.54h-1.48v-.89h1.79v-.89h1v.89h2.06v.89H136.9a6.74,6.74,0,0,0,2,1.54,3.75,3.75,0,0,0-.69.75,7.94,7.94,0,0,1-1.69-1.46v1.5Z"/><path class="cls-14" d="M143.61,485.36c-1.34.26-2.52.52-3.09.64l-.27-1.47c.64-.08,1.92-.31,3.36-.57v-2.22a9.5,9.5,0,0,0-.1-1.42h1.67a9.6,9.6,0,0,0-.11,1.42v1.95c2.23-.43,4.47-.88,5.07-1a3.2,3.2,0,0,0,.85-.3l1,.83c-.11.17-.28.43-.39.64a19.88,19.88,0,0,1-2.88,4.08l-1.22-.71a13.22,13.22,0,0,0,2.38-3.13l-4.86,1v4c0,.92.31,1.23,1.92,1.23a22.26,22.26,0,0,0,4.4-.43l-.06,1.51a32.26,32.26,0,0,1-4.37.29c-2.87,0-3.35-.72-3.35-2.22Z"/><path class="cls-14" d="M160.81,488.22a13.41,13.41,0,0,0,4.86-5.29l.85,1.53a14.27,14.27,0,0,1-4.92,5.07,15.32,15.32,0,0,1-5.36,2.09l-.94-1.44A14.72,14.72,0,0,0,160.81,488.22Zm-.48-4.49-1.11,1.14a29.44,29.44,0,0,0-3.5-3l1-1.09A28.56,28.56,0,0,1,160.33,483.73Z"/><path class="cls-14" d="M174.46,481.45l-.16.28h3.38a3.54,3.54,0,0,0,1-.15l1.13.7a7.65,7.65,0,0,0-.38.86,15.88,15.88,0,0,1-2.14,4.23c.59.42,1.14.85,1.57,1.2l-1,1.23c-.39-.37-.92-.8-1.5-1.26a13.29,13.29,0,0,1-5.19,3.46l-1.28-1.12a12,12,0,0,0,5.3-3.22c-1-.71-2-1.39-2.79-1.91l1-1c.84.49,1.82,1.12,2.76,1.76a11.69,11.69,0,0,0,1.75-3.53h-4.43a15.73,15.73,0,0,1-3.7,3.67l-1.19-.92a12.88,12.88,0,0,0,4.49-4.78,7.34,7.34,0,0,0,.53-1.26l1.59.5C174.9,480.62,174.61,481.17,174.46,481.45Z"/><path class="cls-14" d="M184.93,485.08h7.62c.67,0,1.21-.06,1.56-.09v1.74c-.3,0-1-.07-1.56-.07h-7.62c-.78,0-1.61,0-2.09.07V485C183.3,485,184.17,485.08,184.93,485.08Z"/><path class="cls-14" d="M195.9,491.23a6.69,6.69,0,0,0,.73-3.17l.74.14a7.06,7.06,0,0,1-.77,3.42Zm6.19-4.91s0,.34,0,.49c-.16,3.39-.32,4.66-.67,5.09a1,1,0,0,1-.78.41,7.52,7.52,0,0,1-1.28,0,2.56,2.56,0,0,0-.28-1,7.39,7.39,0,0,0,1,.06.46.46,0,0,0,.39-.15,3.65,3.65,0,0,0,.34-1.55l-.46.19a8,8,0,0,0-.73-1.81l.56-.2a9,9,0,0,1,.66,1.42c0-.51.08-1.12.11-1.88H196.7V480h5.21v1.08H200v1h1.63v1H200v1.06h1.63v1H200v1.07Zm-3.84,2a15.33,15.33,0,0,1,.2,2.53l-.66.1a14.47,14.47,0,0,0-.17-2.56Zm-.44-7.19v1H199v-1Zm1.14,2.06h-1.14v1.06H199Zm-1.14,3.16H199v-1.07h-1.14Zm1.31,4.16a10.28,10.28,0,0,0-.49-2.25l.6-.13a10.36,10.36,0,0,1,.54,2.24Zm7.19-4.56c.4,2.41,1.22,4.42,2.74,5.42a3.78,3.78,0,0,0-.84,1.05c-1.78-1.26-2.6-3.56-3.06-6.47h-1c0,2.1-.31,4.73-1.51,6.46a5.25,5.25,0,0,0-1-.68c1.24-1.78,1.34-4.37,1.34-6.38V480h5.51v5.9Zm-2.16-4.71v3.5h3.11v-3.5Z"/><path class="cls-14" d="M87.67,507.66a16.56,16.56,0,0,1-2.47,6.13,6,6,0,0,0-1.24-.68,13.65,13.65,0,0,0,2.24-5.72Zm3.57-3.48v10.94c0,.87-.22,1.25-.77,1.48a8.63,8.63,0,0,1-2.79.23,6.2,6.2,0,0,0-.52-1.36c1,0,2,0,2.27,0s.39-.09.39-.38V504.18Zm3.19,3.1a22.81,22.81,0,0,1,2.69,6.19l-1.41.56a23.71,23.71,0,0,0-2.54-6.27Z"/><path class="cls-14" d="M110.2,504.94v11.78h-1.35v-.85H100.1v.85H98.81V504.94Zm-10.1,1.25v3.5h3.64v-3.5Zm0,8.36h3.64V511H100.1Zm8.75-8.36h-3.79v3.5h3.79Zm0,8.36V511h-3.79v3.56Z"/><path class="cls-14" d="M112.07,515.63a4.59,4.59,0,0,0,1.93-2.55l1.16.42a5.23,5.23,0,0,1-2,2.9Zm1.89-7.51a11.07,11.07,0,0,1-.95.7,4.41,4.41,0,0,0-.93-.95,9.88,9.88,0,0,0,3.74-3.94l1.4.27-.47.8h3.44l.21-.05.9.58a15.53,15.53,0,0,1-1.15,1.71h3v5H118.3a8.3,8.3,0,0,1,1.71,1.1l-.87.91a9.22,9.22,0,0,0-2.46-1.56l.43-.45h-3.42v-1.06h8.17v-1h-7.72v-1h7.72v-1H114Zm2-2.06a11.41,11.41,0,0,1-1,1.18h3.7a11.76,11.76,0,0,0,.83-1.18Zm3.81,9.48c.53,0,.63-.18.69-1.44a3.26,3.26,0,0,0,1.12.45c-.13,1.71-.51,2.12-1.68,2.12H117.6c-1.53,0-1.88-.35-1.88-1.52v-1.89H117v1.88c0,.35.13.4.76.4Zm2.62-2.63a13.12,13.12,0,0,1,2.52,2.8l-1.18.68a12.44,12.44,0,0,0-2.42-2.86Z"/><path class="cls-14" d="M136.62,505.54c-1.78,3.28-5.82,5.16-9.63,6a4.16,4.16,0,0,0-.6-1.12,17.58,17.58,0,0,0,5-1.64,13.94,13.94,0,0,0-2.2-1.43,17.12,17.12,0,0,1-1.82.84,4,4,0,0,0-.87-1,11.49,11.49,0,0,0,5.2-3.25l1.44.32c-.25.28-.52.56-.8.83h3.23l.2-.06Zm2,4.89c-1.73,4.08-5.91,5.77-10.55,6.43a4.18,4.18,0,0,0-.56-1.19,17.82,17.82,0,0,0,5.83-1.55,14.09,14.09,0,0,0-2.41-1.7,23.68,23.68,0,0,1-2.19.91,4.15,4.15,0,0,0-.78-1,12.5,12.5,0,0,0,6-3.61l1.45.34c-.3.33-.61.65-1,1h3l.23-.06ZM131,506.19a8.42,8.42,0,0,1-.73.49,13.54,13.54,0,0,1,2.25,1.41,9,9,0,0,0,2.18-1.9Zm2.05,5c-.32.22-.65.43-1,.64a13.86,13.86,0,0,1,2.41,1.65,7.29,7.29,0,0,0,2.27-2.29Z"/><path class="cls-14" d="M142.27,506.15v3.27c0,2.17-.18,5.38-1.38,7.47a4.91,4.91,0,0,0-1-.8c1.05-1.92,1.15-4.66,1.15-6.67v-4.37h5.14V504h1.35v1.06h5.21v1.1Zm6,7.78h4.59v.87h-4.59v.84c0,.65-.15.93-.67,1.07a10.52,10.52,0,0,1-2.49.15,4.85,4.85,0,0,0-.39-1c.81,0,1.73,0,2,0s.31-.07.31-.28v-.82h-4.61v-.87H147v-.78h-3.89v-.87H147v-.71c-1.16.07-2.35.11-3.45.12a3.07,3.07,0,0,0-.23-.8,52.22,52.22,0,0,0,7.52-.58l.8.72a29.66,29.66,0,0,1-3.37.44v.81h4v.87h-4Zm-3.58-3.53v-1.52a5.94,5.94,0,0,1-1.63,1.38,4,4,0,0,0-.64-.72,5.78,5.78,0,0,0,2-1.59h-1.59v-.89h1.86v-.89h.95v.89h1.79V508H145.6v.16c.44.23,1.49.85,1.77,1l-.63.7c-.21-.21-.7-.58-1.14-.92v1.48Zm4.93-.12v-1.46a5.7,5.7,0,0,1-1.63,1.39,4.41,4.41,0,0,0-.65-.72,5.34,5.34,0,0,0,2-1.54h-1.48v-.89h1.79v-.89h1v.89h2.06V508H150.9a6.58,6.58,0,0,0,2,1.54,3.75,3.75,0,0,0-.69.75,7.94,7.94,0,0,1-1.69-1.46v1.5Z"/><path class="cls-14" d="M157.61,509.86c-1.34.26-2.52.52-3.09.64l-.27-1.47c.64-.08,1.92-.31,3.36-.57v-2.22a9.5,9.5,0,0,0-.1-1.42h1.67a9.6,9.6,0,0,0-.11,1.42v1.95c2.23-.43,4.47-.88,5.07-1a3.2,3.2,0,0,0,.85-.3l1,.83c-.11.17-.28.43-.39.64a19.88,19.88,0,0,1-2.88,4.08l-1.22-.71a13.22,13.22,0,0,0,2.38-3.13l-4.86,1v4c0,.92.31,1.23,1.92,1.23a22.26,22.26,0,0,0,4.4-.43l-.06,1.51a32.26,32.26,0,0,1-4.37.29c-2.87,0-3.35-.72-3.35-2.22Z"/><path class="cls-14" d="M174.81,512.72a13.41,13.41,0,0,0,4.86-5.29l.85,1.53A14.27,14.27,0,0,1,175.6,514a15.32,15.32,0,0,1-5.36,2.09l-.94-1.44A14.72,14.72,0,0,0,174.81,512.72Zm-.48-4.49-1.11,1.14a29.44,29.44,0,0,0-3.5-3l1-1.09A28.56,28.56,0,0,1,174.33,508.23Z"/><path class="cls-14" d="M188.46,506l-.16.28h3.38a3.54,3.54,0,0,0,1-.15l1.13.7a7.65,7.65,0,0,0-.38.86,15.88,15.88,0,0,1-2.14,4.23c.59.42,1.14.85,1.57,1.2l-1,1.23c-.39-.37-.92-.8-1.5-1.26a13.29,13.29,0,0,1-5.19,3.46l-1.28-1.12a12,12,0,0,0,5.3-3.22c-1-.71-2-1.39-2.79-1.91l1-1c.84.49,1.82,1.12,2.76,1.76a11.69,11.69,0,0,0,1.75-3.53h-4.43a15.73,15.73,0,0,1-3.7,3.67l-1.19-.92a12.88,12.88,0,0,0,4.49-4.78,7,7,0,0,0,.53-1.26l1.59.5C188.9,505.12,188.61,505.67,188.46,506Z"/><path class="cls-14" d="M198.93,509.58h7.62c.67,0,1.21-.06,1.56-.09v1.74c-.3,0-1-.07-1.56-.07h-7.62c-.78,0-1.61,0-2.09.07v-1.74C197.3,509.52,198.17,509.58,198.93,509.58Z"/><path class="cls-14" d="M209.9,515.73a6.69,6.69,0,0,0,.73-3.17l.74.14a7.06,7.06,0,0,1-.77,3.42Zm6.19-4.91s0,.34,0,.49c-.16,3.39-.32,4.66-.67,5.09a1,1,0,0,1-.78.41,7.52,7.52,0,0,1-1.28,0,2.56,2.56,0,0,0-.28-1,7.39,7.39,0,0,0,1,.06.46.46,0,0,0,.39-.15,3.65,3.65,0,0,0,.34-1.55l-.46.19a8,8,0,0,0-.73-1.81l.56-.2a9,9,0,0,1,.66,1.42c0-.51.08-1.12.11-1.88H210.7v-7.34h5.21v1.08H214v1h1.63v1H214v1.06h1.63v1H214v1.07Zm-3.84,2a15.33,15.33,0,0,1,.2,2.53l-.66.1a14.47,14.47,0,0,0-.17-2.56Zm-.44-7.19v1H213v-1Zm1.14,2.06h-1.14v1.06H213Zm-1.14,3.16H213v-1.07h-1.14Zm1.31,4.16a10.28,10.28,0,0,0-.49-2.25l.6-.13a10.36,10.36,0,0,1,.54,2.24Zm7.19-4.56c.4,2.41,1.22,4.42,2.74,5.42a3.78,3.78,0,0,0-.84,1c-1.78-1.26-2.6-3.56-3.06-6.47h-1c0,2.1-.31,4.73-1.51,6.46a5.25,5.25,0,0,0-1-.68c1.24-1.78,1.34-4.37,1.34-6.38v-5.3h5.51v5.9Zm-2.16-4.71v3.5h3.11v-3.5Z"/><path class="cls-7" d="M208,325.41c-2.74,16.13-18.57,22-25.76,45.83a1.24,1.24,0,0,1-2.37,0c-7.88-26.12-26.16-30.68-26.16-50.83a27.35,27.35,0,0,1,29.19-27.29C199,294.17,210.69,309.43,208,325.41Z"/><path d="M181,373.62h0a2.71,2.71,0,0,1-2.62-1.95c-3.65-12.09-9.62-19.5-14.89-26-6.09-7.56-11.34-14.09-11.34-25.22a29,29,0,0,1,9.13-21.06,28.65,28.65,0,0,1,42.18,3.15,29.48,29.48,0,0,1,6,23.16h0c-1.38,8.13-5.8,13.61-10.91,20-5.27,6.55-11.24,14-14.89,26.06A2.72,2.72,0,0,1,181,373.62Zm0-79.06a25.85,25.85,0,0,0-25.83,25.85c0,10.08,4.71,15.93,10.68,23.33,5.32,6.61,11.33,14.08,15.17,26.25,3.83-12.17,9.85-19.64,15.17-26.25,4.85-6,9-11.22,10.29-18.59a26.47,26.47,0,0,0-5.35-20.79,25.34,25.34,0,0,0-18.37-9.75C182.19,294.58,181.6,294.56,181,294.56Z"/><path class="cls-3" d="M172.54,308.65h9.3c6.83,0,11.71,2.38,11.71,9.3,0,6.71-4.88,9.79-11.55,9.79h-4.62v11.63h-4.84Zm9,15.22c4.92,0,7.26-1.88,7.26-5.92s-2.54-5.38-7.42-5.38h-4v11.3Z"/><circle class="cls-8" cx="232.89" cy="238.26" r="13.41"/><path d="M232.89,254.17a15.91,15.91,0,1,1,15.91-15.91A15.92,15.92,0,0,1,232.89,254.17Zm0-26.82a10.91,10.91,0,1,0,10.91,10.91A10.91,10.91,0,0,0,232.89,227.35Z"/><rect class="cls-13" x="150.58" y="124.23" width="335.56" height="95.51"/><path d="M204.27,197.72a25.58,25.58,0,0,1-7-2.67,57.19,57.19,0,0,0-6.79-3.25l-3.05,2.87L186,195l-1.28-.93-.18-.94L187,190a8.75,8.75,0,0,0-4.33-1.46l-1.29-.94-3.64,3.52h-1.28a22.71,22.71,0,0,0-1.29-4,20.52,20.52,0,0,1,2.34-5.39,55.5,55.5,0,0,1,3.4-4.86,4,4,0,0,1-3.69-1.29l-.59-1.94a17.67,17.67,0,0,1,3.58-1.75q1.81-.65,3.75-1.41l.17-1-.64-1.93-.65-.12a6.5,6.5,0,0,1-3.34,1.59l-3.87-3.7v-.64l.36-.65a46.33,46.33,0,0,1,7.32-2.22l.18-.65-.18-1.75h-.64l-1.12.46-.76.18-.35.94-1.11.17-1.12-.93h-.64l-.65.17a17.53,17.53,0,0,0-4-2.58l-1.29-1.29a7.6,7.6,0,0,1-1.76-4.33l.18-1.11-.18-.65.94-.94,2.58-.17a5.83,5.83,0,0,0,4,.82,25,25,0,0,0,5.63-1V148a3.7,3.7,0,0,1-1.12-2.4l.3-.65,1-.35.59-.93,1-.18a6.83,6.83,0,0,1,3.34,1.93l1,1.76-.17.82a18.42,18.42,0,0,1,6.85.47l2.87-.64a60.11,60.11,0,0,0,16.53.17,15.07,15.07,0,0,1,4.62-.35l.82.47v1.76a9,9,0,0,1-3.69,2.28L211,154.18l-1.76,3.52.76.17a25.83,25.83,0,0,1,6.74-1.11,13.54,13.54,0,0,1,5.74,1.41,13.78,13.78,0,0,1,1,5.3v5.6a17.74,17.74,0,0,1-2.11,7l-.3.82c.43-2,.8-4,1.12-5.8v-6.68a9.14,9.14,0,0,0-.82-4.63,16,16,0,0,0-4.81-.35l-1.93.64-.12.82a34.38,34.38,0,0,1,.76,7.33,25.57,25.57,0,0,1-.61,4.42,9.68,9.68,0,0,1-1.91,3.9l-1,.52.52.59a45.25,45.25,0,0,0,7.68-1.23l-.82,2.05q-3.87,1.58-7.85,2.87A51.72,51.72,0,0,1,203,183.3l-1.76-.47-1.76-1.93-3.69-.82a11.27,11.27,0,0,1-.7,4.1,28.41,28.41,0,0,1-1.7,3.58q3.39,1.63,6.59,3.48a12.32,12.32,0,0,0,7.35,1.5,17.77,17.77,0,0,0,6.24-2.49c1.94-1.23,3.86-2.38,5.78-3.43l-.65,1.58.12.65q-1.59,1.75-3.25,3.51a21.55,21.55,0,0,1-3.61,3.05A14.09,14.09,0,0,1,204.27,197.72Zm-14-11.37a7.9,7.9,0,0,0,2.11-5l-1.29-.29q-3.33,1.11-6.74,2.52l-.29,1A40.68,40.68,0,0,1,190.32,186.35ZM190,168.89l.17-1.41-.35-1.29-.64-.17-1.58.82-.18,1.29.35,1.4Zm3.22,8.67a16.64,16.64,0,0,1-2.11-4.63l-1.46.76-1.23,2.58-.65.47-.17,1.11h2.22l1.76-.29Zm5.92-16.64a10.78,10.78,0,0,0,2.4-1.29,8.92,8.92,0,0,0,1.76-3.22,21.15,21.15,0,0,1-3.52-1.29l-1.29.18a16.43,16.43,0,0,0-3.69-1.76l-1.29,1.76a48.92,48.92,0,0,0-5.09,2.75,22.11,22.11,0,0,0-.53,3l.82.35,2.75-.82.59-1.11.64-.3.53-1.64h1.88a8.16,8.16,0,0,1,3.39,3.52Zm6.68,17.58a11.85,11.85,0,0,1-2.4-7.68l.35-5.45c-1.13-.07-2.27-.13-3.4-.17l-.12,1a37.62,37.62,0,0,1,1.12,5.57l1.29,5.33,1.11.47.76,1.11Zm4.16-.65v-1.93l.35-1.41-1.64-.17a16.59,16.59,0,0,1-1.11,3.87Zm1-12.77v-1.29l.11-1.76-.64-.35-2,1-.18.76.35,1.76,1.76.17Zm-1.65,5.57,1.47-.3.29-1.58h-.64l-1.58.47-.18,1.29Z"/><path d="M258.94,191.45a12.34,12.34,0,0,1-5-1,16.47,16.47,0,0,1-4.16-2.61,9,9,0,0,1-2-3.51,12.56,12.56,0,0,1-.44-4.16c.24-1.41.51-2.81.82-4.22s.63-2.73.94-4a14.89,14.89,0,0,1-3.81-1.56,15.29,15.29,0,0,0-3.69-1.55h-.94l-1,.35q-2.06-1.94-4-3.57a13.83,13.83,0,0,1-4.8-3,6.91,6.91,0,0,1-2.05-4.16l.47-1,.64-1.11a4.56,4.56,0,0,1,3.34-.94l.82.18,1.41-.18a77.88,77.88,0,0,0,10.51,2.46q5.37.88,10.76,2l1.64-.64a17,17,0,0,1,3.57,2c1.13.82,2.23,1.66,3.28,2.52a1.85,1.85,0,0,1,.47,1.76l-1.29,2.23-.94.64-.64,2.11a7.92,7.92,0,0,0-3.52,1.93,47.79,47.79,0,0,0-3.69,4.16,14.8,14.8,0,0,0-1.4,7.27l2.4,2.05a15.07,15.07,0,0,0,5.56,1l1-.36,1.41.53a3,3,0,0,1,.64,2.4L264,190.63Zm8.14-31.88-1.76-.93a11,11,0,0,1-1.58-3.58l.94-.47v-1.11a8.9,8.9,0,0,1,4.51,1.11l.76,3-.29.64A4.21,4.21,0,0,1,267.08,159.57Zm4.51-1.58-.64-.53-1.12-3.16.94-.18.18-.82-.18-.64a6.6,6.6,0,0,1,3.22,1.46,4.67,4.67,0,0,1,.77,2.7l-1.12,1Z"/><path d="M296.55,197.07l-1.29-.64-.58-1.64.17-.76-1.11-3.11-1.41-.76a8.33,8.33,0,0,1-1.81-4.81,13.55,13.55,0,0,1,4.33-4.16l5.69-.29a8,8,0,0,1,3.63,1.23l.64.47.88-2.52a4.37,4.37,0,0,0-3-1.05l-.59.17a51.08,51.08,0,0,1-5.39-.17,11,11,0,0,1-4,.93,24.22,24.22,0,0,0-4.17.59,13.26,13.26,0,0,1-2.16-3.63l1.23-2.52c1.13-2.78,2.33-5.4,3.6-7.88A69.18,69.18,0,0,0,294.5,159l-2-2.7-2.29-.88-.82.18-4-2.93-2.29-2.23-.29-1.7.47-2.28-.35-.65,1.05-.41.82.3a2,2,0,0,1,1.82-.59l4.92.47,1.53-.18,1.87.77,1.7,2.16c1.95.71,3.85,1.47,5.68,2.29.63,1.68,1.17,3.4,1.64,5.15a19.71,19.71,0,0,1-3.34,8.91q-2.75,4.05-5.39,8,3.69.65,7.47,1a13.36,13.36,0,0,1,6.89,2.7,6,6,0,0,1,1.93,5.57,13.72,13.72,0,0,1-3.28,5.8c-1.6,1.72-3.1,3.43-4.51,5.15l-1.11.59-1.06,1.11a4.24,4.24,0,0,0-2,.94l-1.11,1Zm3.64-7.09,1.87-2.75-1.23-1.41H299.6l-2.52.94-.53,1.35A12.43,12.43,0,0,0,300.19,190Z"/><path d="M343.84,184.15l-.37-.25-.49-.47-.27-.12a1.61,1.61,0,0,1,.33-1.05,8,8,0,0,1,1.29-1.08,10.87,10.87,0,0,0,1.29-1l-.3-.12-.87.39-.55-.09-.29.05a3.85,3.85,0,0,1-1.12-.54l0-.22.2-.41-.2-.11a5.79,5.79,0,0,1-1.28.7l-.12.23a4.69,4.69,0,0,1-.8.18v-.45l-.2-.06a.82.82,0,0,1-.27-.66l-.45-.35-.06-.45.39-.61a33.18,33.18,0,0,1,3.48-2.56,13.19,13.19,0,0,1,3.94-1.69l.62.17.14.26.27,0,.2-.08a2.42,2.42,0,0,0,.51,1.07l1.09.45.86.92v.45a8.67,8.67,0,0,1-1.38,2.75,18.9,18.9,0,0,1-2.17,2.42L345.89,183l-.88.78A2,2,0,0,1,343.84,184.15ZM340,191.49a1.69,1.69,0,0,0,.17-.66l-.1-.41.14-.18a.81.81,0,0,0,.64-.31l.3-.22.11-.29h.26l.31,0a15.5,15.5,0,0,0,2.62-.17c.78-.17,1.57-.37,2.37-.59a7,7,0,0,0,2.25-1.07,11.35,11.35,0,0,1-1.54-1.08,4,4,0,0,1-1.54,1l-.16-.33,0-.51-.56-.12.07-.33-.21-.17a2.57,2.57,0,0,1-.22-.73l.22-.41h.31a6.49,6.49,0,0,1,1-1,4.84,4.84,0,0,0,1-1l.27,0,.14-.26.39-.21c.64-.53,1.27-1,1.88-1.44a17.26,17.26,0,0,1,1.85-1.16l.35.27.27.36.37-.08.2.54.23.16,0,.49a1.36,1.36,0,0,1-.27.86l-.57.43a4.9,4.9,0,0,1,1.84.35l.25.35.51.21.1.65a1.72,1.72,0,0,1-.57,1.15c-.85.82-1.69,1.59-2.52,2.32a26.61,26.61,0,0,1-2.67,2,15.93,15.93,0,0,1-2.75,1,17.43,17.43,0,0,1-3,.49l-1.07.05A10.7,10.7,0,0,1,340,191.49Zm7.18-13.11a5.94,5.94,0,0,0,1.11-1.76l-.9-.12a9.36,9.36,0,0,0-2,.8,14.93,14.93,0,0,0-1.81,1.15l.23.16q1.28-.17,2.52-.27Zm3,8.35,2.33-1.86.17-.48-.55,0a2.87,2.87,0,0,0-1.28.29,1.55,1.55,0,0,1-.84-.35l-1.39,1.25.47.51.57.62Z"/><path d="M370.89,192.23l-.45-.11-.33-.12-.51.06a3.37,3.37,0,0,1-2.18-.51l-.35-.61-.38-.11a10,10,0,0,0,1.56-.34l1.45-.4.06-.49-.61-.12c-.48.12-1,.24-1.48.35a5.63,5.63,0,0,1-1.6.1l-.23-.06-.45.06-.71-.33-.35-.51-.23,0,.12-.51.84-.17.46.1a9.36,9.36,0,0,0,4-.71l-.12-.68H369c-.49.11-1,.22-1.43.34a6.45,6.45,0,0,1-1.48.17l-.74-.35-.22-.28-.45-.17.34-.49a15.35,15.35,0,0,0,2.08-.26c.67-.13,1.34-.25,2-.35l-.39-.68h-.23l-1.52.16-.55-.28a1.68,1.68,0,0,0-.62-.62v-.39a7,7,0,0,1,1.58-.1,1.59,1.59,0,0,1-.57-.68l-.1-.39a10.68,10.68,0,0,1-1.46,1.13l-.39,0-.57-.22,0-.33,0-.23-.23-.51.19-.49a4,4,0,0,0,1.39-1.23,9,9,0,0,1-2.36-.62l-.1-.29-.23-.06-.28,2.91.06.23q-.16,1.58-.36,3.15a10.55,10.55,0,0,1-.81,3,2.56,2.56,0,0,0-.68.9l-.16.33-.8.68-.27-.29-.39-.1v-.23l0-.35-.22-.71a11.29,11.29,0,0,0,1.43-5.86,23.32,23.32,0,0,1,.64-6.08,6.48,6.48,0,0,0-.49-.72l-.29-.16v-.35l.29-.1a.57.57,0,0,0,.49.1l.57-.06a8.65,8.65,0,0,0,2.46.23l2.63-.27a7.58,7.58,0,0,0-1.33-2.26l0-.43-.39-.45v-.22l.67-.17.13-.22.39-.13.49.23.39-.17,2,1,.1.35,0,.61a2.39,2.39,0,0,1,.27,1.56h.73a10.65,10.65,0,0,0,2.27-.7,21.61,21.61,0,0,1,2.2-.8l.23.33.12.29-.45.39-.39.1a1.78,1.78,0,0,1-.8.68l-.78.33.39,1h.23a7.27,7.27,0,0,1,1.52-.41l.51.18.1.56-.22.33a12,12,0,0,0-1.79,1l-.06,1.4a3.85,3.85,0,0,0,1.56.32l.06.45-.16.23-.78.12-.68-.12a2.78,2.78,0,0,0-.1,1.13l.26.22.13.56-.58.51-1.49.43v.23a2.28,2.28,0,0,0,.88.28l.74-.28.55.18.06.49-1,.74.12.84.23,0c.52-.17,1.06-.34,1.62-.49l.84.23a.86.86,0,0,0,.1.61,4.5,4.5,0,0,1-1.22.7l-1.34.47c-.11.56-.24,1.13-.37,1.71a10.63,10.63,0,0,1-.54,1.65l-.55.29A1,1,0,0,1,370.89,192.23Zm-7.4-13a14.34,14.34,0,0,0,2.52.11l.35-.11,0-.84-.23-.61-.33-.17-2.91.33v.23l.23,1.06Zm5.2-.51v-.22l-.22-.5.35-.06.49.17a6.53,6.53,0,0,0,1.64-.17l.1-.49L371,177l-.29,0-1.74.39-.1.22h-.35l-.43-.16-.23.1.27,1.29Zm3.43,4.21-.29-.39-.16-.33a2.47,2.47,0,0,1-1.52.65l-.33-.1.06-.51a.77.77,0,0,1-.18-.62l.45-.49a3.94,3.94,0,0,0,.84-1.19l-.16-.22a1.94,1.94,0,0,1-1.62-.5,3.89,3.89,0,0,0-1,.62l0,.45.11.45a5.89,5.89,0,0,0,1.18.33l.05.39-.17.29-.68.1-.32,0a8.87,8.87,0,0,0-.13,1.89h.29l1.83-.33A12.25,12.25,0,0,0,372.12,182.88Z"/><path d="M386.89,189.54a1.93,1.93,0,0,0-.76-.37,5.26,5.26,0,0,1-1-2.36c-.14-.84-.26-1.72-.34-2.62l.06-1-.3-.1c-.8.18-1.59.38-2.38.6l-.56-.23-.26.16c-.59-.46-1.19-.9-1.79-1.31a2.49,2.49,0,0,1-.65-1.66l.1-.33a24.74,24.74,0,0,0,2.87-.37,27.91,27.91,0,0,0,2.77-.65l0-.5-.14-1.19a.93.93,0,0,0,.24-.79l.23-.13c.48.77.91,1.53,1.31,2.28a19.93,19.93,0,0,1,2.61-.27,6,6,0,0,0,2.35-.55l.29.06.66-.27.26.06.7-.22.23.1a1.93,1.93,0,0,0,.59,1.42l.27.1.26.29a2.08,2.08,0,0,0,.6.53l-.17.37-.36.1-.13.23-.3,0-.17.36a.37.37,0,0,0-.18.48,1.68,1.68,0,0,0-.41.71l-.23.17a4.84,4.84,0,0,1-1.31,2.15,3,3,0,0,0-1,1l-.16-.15a1,1,0,0,1-.64.43l-.1-.22-.16-.49a5.18,5.18,0,0,0,.75-1.62c.14-.58.29-1.15.44-1.73h-.37c-.8.15-1.6.3-2.4.43l-.43-.06-.72.33-.08,1.09-.19,3.46.19.31a5.84,5.84,0,0,0,1.88.29l2.26-.35c.74-.12,1.48-.23,2.23-.31l.23.06.37-.12.29-.16a.86.86,0,0,0,.63.39l.33.49-.55.22,0,.48a14.29,14.29,0,0,0-2.51.44c-.79.21-1.6.39-2.44.54-.6,0-1.19,0-1.78-.06Z"/><path d="M399.7,180.89l-.55-1.07a1.15,1.15,0,0,1-.7-.68l-.08-.57a2.22,2.22,0,0,1-.7-.55l0-.23.37-.35.35-.1.41-.43.47-.15.49.31a14.89,14.89,0,0,1,2.66.15,24.6,24.6,0,0,1,2.72.53c.35.41.71.84,1.06,1.29l-.32,1.31-.27-.1-.19.35-.59,0,.14.43-.08.2-.2-.08-.5-.43,0,.23a7.67,7.67,0,0,1-1.85-.07,6.23,6.23,0,0,0-1.88,0l-.16.23Zm4.33,9.8-.78-.33A17.5,17.5,0,0,1,401.9,189a1.13,1.13,0,0,0,.06-1.07l.24-.16.25.22a40.3,40.3,0,0,0,4.22-3.5,22.25,22.25,0,0,1,4.23-3.27l1-.16a1.56,1.56,0,0,1,.39.64l-.22,0a.5.5,0,0,0-.47.51l-.29.16.57.21a4.34,4.34,0,0,1-1.12,1,1.52,1.52,0,0,1-.29.39c-.63.5-1.59,1.32-2.87,2.48s-2.22,2-2.81,2.53l-.08.3-.45.58Z"/><path d="M417.73,192l-.33-.55a.49.49,0,0,1-.39-.39l.39-.33a.6.6,0,0,1-.35-.57,4.93,4.93,0,0,0,1.68-1.07,15.75,15.75,0,0,0,1.47-1.72l1.34-1.81a5.8,5.8,0,0,1-1.42-1,9.7,9.7,0,0,1-1.16-1.33h-.49l-.29,0-.55-.21.16-.57.1-.23-.22-.1-.23.29-.16-.19-.17-.22.07-.23-.29-.39-.78-.16a.55.55,0,0,1-.23-.56l.23-.74a20.46,20.46,0,0,0,1.65-2.09,17.38,17.38,0,0,1,1.71-2.09,25.47,25.47,0,0,1,2-1.8,11.26,11.26,0,0,1,2.12-1.4,7.1,7.1,0,0,0,1.85,1.62,1.56,1.56,0,0,0,.57,1,.76.76,0,0,1,.21.82,16.14,16.14,0,0,1-1.46,2.09,6.34,6.34,0,0,0-1.39.88l-.1.29a7.08,7.08,0,0,1,.88-.17l.51,0,1.39-.1a8,8,0,0,1,1.3.56,2.29,2.29,0,0,0,.61.77,4.88,4.88,0,0,1-.61,1.44c-.26.4-.5.8-.72,1.21q-1.74,2.13-3.4,4.2c-1.1,1.38-2.21,2.77-3.33,4.15A2,2,0,0,1,417.73,192Zm5.27-8.22a13.31,13.31,0,0,1,1.06-1.46,4.21,4.21,0,0,0,.79-1.45.62.62,0,0,1-.46-.17l-.22-.35-.49-.32-.23-.5-.57-.22-.23.16,0,.27-.39.35c-.23,0-.37.09-.41.26a21.47,21.47,0,0,1-1.66,1.65,10.72,10.72,0,0,1,1.42,1A5.07,5.07,0,0,0,423,183.82Z"/><path d="M432.72,185.56c-.37-.44-.74-.89-1.11-1.36s-.72-1-1.06-1.47v-.2a.6.6,0,0,0,.14-.41l.18-.15c.06-.23.18-.31.37-.24a2.42,2.42,0,0,0,.93.1,2.84,2.84,0,0,1,.92,0,22.24,22.24,0,0,1,2.94-.34l3-.13a2,2,0,0,0,1,.16,10.16,10.16,0,0,0,2.26-.16l.2.16,0,.45-.26.35v.27l0,.29-.35.75a8,8,0,0,1-2.69.76,22.61,22.61,0,0,0-2.79.48,12,12,0,0,1-2,.14l-.84.14-.35-.06-.16.12-.19.35Z"/><path d="M453.43,192.1a1.73,1.73,0,0,0-.88-.49l-.29-.61a1.68,1.68,0,0,1-.78-.68v-1a8.47,8.47,0,0,1,.75-1.73c.33-.56.64-1.11.94-1.66h.32l.23,0a2.38,2.38,0,0,1,1.35-.26l0-.29c-.17-.48-.34-1-.49-1.45a4.39,4.39,0,0,1-.16-1.61l.33-2.62.32-.06.19-.43H455a10.74,10.74,0,0,1-1.52.29l-1.55.2-.13.84-.33.33c-.45,1.41-.85,2.82-1.21,4.25a36.77,36.77,0,0,1-1.31,4.22l.06.28-1,.43-.1-.22-.62-.27-.39-.78-.45-.61v-.78a10.41,10.41,0,0,0,.72-2.28l.12-.28a7.51,7.51,0,0,0,.39-1.5l-.16-.35a12,12,0,0,0,.76-1.58c.2-.53.39-1.08.57-1.64l-1.39-.94-.39-.68-.13-.62.74-.26.1-.29.52-.16.39.06.32-.06.23.06.39-.06.23.06c.49-.08,1-.15,1.49-.21l1.48-.14.22.06.39-.1.23,0,.23-.1.32.1.19-.27-.58-.84a4.68,4.68,0,0,0-1.49-.33l-.19.33-.55.1-.62-.32-.61-.62v-.22a2,2,0,0,0,.61-1.17,7.89,7.89,0,0,1,2.36-.5l.62.23.26-.12a7.93,7.93,0,0,1,2.3,1.17l.35.9a1.34,1.34,0,0,0-.68.43l-.33.45-.41.06a1.33,1.33,0,0,0,1,.33,12.13,12.13,0,0,1,2.24-.16l.9.45.94.84c-.31.39-.61.8-.9,1.21a13.67,13.67,0,0,1-1.95.31,12.82,12.82,0,0,0-2,.3l.23.23.28-.06a7.13,7.13,0,0,1,1.07,1.68l.27.06a4.18,4.18,0,0,0,2.23-.61,11.85,11.85,0,0,1,2.53.82l.06.51a4.75,4.75,0,0,0-.68,1.27h-.33a4.53,4.53,0,0,1-1.68.75,7.79,7.79,0,0,0-1.74.6l-.33-.22a11.16,11.16,0,0,1-.55,1.39l.38.1.56-.06a6.91,6.91,0,0,1,1.68.2,4,4,0,0,1,1.46.71c.19.47.38,1,.56,1.46a3.42,3.42,0,0,1,.15,1.71l-.16.56.12.22-.35.39a30.37,30.37,0,0,1-4,.91A34.53,34.53,0,0,1,453.43,192.1Zm3.59-2,3-.32,0-.5a2.77,2.77,0,0,0-.62-1.12l-2-.07a16.6,16.6,0,0,1-2.68.62,3.49,3.49,0,0,0-.56,1.52.72.72,0,0,0,.72.16Z"/><path d="M753.82,431.3c1.34-1.84,1.8-4.82,1.95-7.92l2.77.54c-.22,3.38-.58,6.73-2.12,8.78Zm34.92-3v4.82H770.1v-4.39c-.26,2.16-.58,3.38-1.05,4a3.34,3.34,0,0,1-2.27,1.44,16.73,16.73,0,0,1-3.2.14,11.22,11.22,0,0,0-1-4,12.93,12.93,0,0,0,1.87.11,1,1,0,0,0,.93-.47,6.44,6.44,0,0,0,.62-2.52l-1.12.4a21.87,21.87,0,0,0-1.4-4.65l1.94-.65a21.19,21.19,0,0,1,.83,2c0-.83.07-1.73.14-2.74H756V401.31H770v4.18h-4v1.4h3.42v3.89h-3.42v1.51h3.42v3.89h-3.42v1.55h4.72s0,1.15-.07,1.69c-.18,3.92-.33,6.8-.58,8.86h7v-6.63H772v-4.71h5.08v-5.33h-6v-4.82h7.77a41,41,0,0,0-5.69-3.21l3-3.78a35.85,35.85,0,0,1,8.38,4.72l-1.76,2.27h5.29v4.82h-5.94v5.33h5.26v4.71h-5.26v6.63Zm-28-4.83a39.42,39.42,0,0,1,.28,6.66l-2.26.29a39.64,39.64,0,0,0-.18-6.73Zm-.47-18v1.4h1.62v-1.4Zm1.62,5.29h-1.62v1.51h1.62Zm-1.62,7h1.62v-1.55h-1.62Zm2.84,5.4a30.89,30.89,0,0,1,1,5.83l-2.24.43a30.36,30.36,0,0,0-.9-5.9Z"/><path d="M824.13,429.72H810v4.57h-5.43v-4.57H790.9V425h13.65v-1.37H794.4V408.8h10.15v-1.22H791.66v-4.72h12.89v-2.77H810v2.77h13.14v4.72H810v1.22h10.37v14.83H810V425h14.15Zm-24.69-15.45h5.11v-1.33h-5.11Zm5.11,5.22v-1.37h-5.11v1.37Zm5.43-6.55v1.33h5.08v-1.33Zm5.08,5.18H810v1.37h5.08Z"/><path d="M846.38,418.81c-.22.43-.47.86-.72,1.26h14.25s0,1.15-.1,1.73c-.47,6.8-1,9.75-2,10.87A3.84,3.84,0,0,1,855.2,434a22,22,0,0,1-3.71.15,10.33,10.33,0,0,0-.86-3.49,18.6,18.6,0,0,1-3.5,3.74,16.85,16.85,0,0,0-3.7-2.88,19.17,19.17,0,0,0,6.44-7.41h-1.26a28.05,28.05,0,0,1-8.28,8.67,14.85,14.85,0,0,0-3.42-3.06,21.94,21.94,0,0,0,6.84-5.61h-1.26a22.35,22.35,0,0,1-3.81,3.16,34.19,34.19,0,0,0-2.67-2.52c-2.81,1.44-5.65,2.85-8.1,4l-1.9-5.3c1.15-.39,2.59-.93,4.17-1.54v-9.51h-3.31v-4.93h3.31v-6.91H835v6.91h3v4.93h-3V420l2.41-1,.79,3.13a17.4,17.4,0,0,0,3-3.31H837.7v-4.36h22.86v4.36Zm11.73-5.36H840.66V400.92h17.45Zm-4.82-9h-8v1.08h8Zm0,4.39h-8v1.08h8Zm1,15.3a29.91,29.91,0,0,1-3.27,6c.72,0,1.29,0,1.65,0a1.14,1.14,0,0,0,1.05-.43c.43-.47.82-2.05,1.15-5.65Z"/><path d="M871.22,406.57a102.43,102.43,0,0,0-1.69,13.61,7.86,7.86,0,0,0,0,.82c.44-1,.9-1.72,1.37-2.8l2.63,2.12c-1.08,3.24-2.16,6.88-2.59,9a10.86,10.86,0,0,0-.22,1.7c0,.39,0,1,0,1.61l-4.93.37a41.76,41.76,0,0,1-1.48-11.56,112.78,112.78,0,0,1,1.4-14.94,38.43,38.43,0,0,0,.4-4.07l6,.51A34.72,34.72,0,0,0,871.22,406.57Zm18.21-1.73c0,.69-.07,1.87-.1,3.39,1.83-.22,3.6-.47,5.22-.83v5.43c-1.62.22-3.39.44-5.26.54.07,3.32.25,5.87.36,8a22.84,22.84,0,0,1,6.91,4.64l-2.95,4.58a49.44,49.44,0,0,0-3.85-3.28c-.47,3.38-2.7,5.47-7.42,5.47-5.07,0-8.42-2.16-8.42-6.23s3.31-6.62,8.35-6.62c.61,0,1.22,0,1.8.07-.11-1.91-.22-4.1-.25-6.37-.69,0-1.37,0-2,0-2.16,0-4.32-.07-6.44-.22l0-5.18c2.09.21,4.25.32,6.45.32.68,0,1.33,0,2,0,0-1.7,0-3-.07-3.68a16.78,16.78,0,0,0-.29-2.48h6.23C889.54,403.11,889.47,404.05,889.43,404.84Zm-7.59,22.82c1.73,0,2.41-.93,2.41-2.91v-.25a8.87,8.87,0,0,0-2.41-.33c-1.69,0-2.81.65-2.81,1.8S880.29,427.66,881.84,427.66Z"/><path d="M930.58,406.25V425h-5.51v-1.69h-6.94v11h-5.55v-11h-6.91v1.87h-5.25V406.25h12.16v-6.16h5.55v6.16Zm-18,11.87v-6.73h-6.91v6.73Zm12.49,0v-6.73h-6.94v6.73Z"/><path d="M956.25,421.62c2.56,3.88,6.59,6.44,12.81,7.56a21,21,0,0,0-3.38,4.85c-7-1.65-11.19-5-14-10.29-2.19,4.43-6.44,8.28-14.43,10.44a20.62,20.62,0,0,0-2.85-4.64c6.56-1.66,10.16-4.58,12.06-7.92H934.9v-5.15h3.64V404.59h10v-4.5h5.32v4.5h10.62v11.88H968v5.15Zm-8-5.15a25.13,25.13,0,0,0,.33-4.36V409.7h-4.72v6.77Zm5.65-6.77v2.45c0,1.4-.07,2.88-.21,4.32h5.25V409.7Z"/><path d="M994.52,400.34a44,44,0,0,0,10.65,12.75,26.42,26.42,0,0,0-4.46,4.75c-.5-.51-1-1-1.58-1.62-.33,10.11-.72,14.25-1.91,15.76a5,5,0,0,1-3.6,2,35.19,35.19,0,0,1-5.33.18,12.27,12.27,0,0,0-1.73-5.29c1.8.14,3.49.18,4.39.18a1.77,1.77,0,0,0,1.44-.54c.65-.72,1-3.71,1.23-10.37h-5.9c-.87,6.8-3.24,12.82-12.75,16.41a17.32,17.32,0,0,0-3.42-4.85c7.89-2.6,9.76-6.81,10.44-11.56h-5.4v-2.3a27.62,27.62,0,0,1-2.52,2.26,38.69,38.69,0,0,0-4.5-4.24,29.61,29.61,0,0,0,10.59-13.46l5.68,1.65a45.51,45.51,0,0,1-6.73,11h17.32a67.1,67.1,0,0,1-7.1-10.7Z"/><path d="M1024.65,407h-18.32V402.9h6.55v-2.81H1018v2.81h6.69Zm15.87,25.77h-10.11v1.58h-4.68v-18l-.25.36a23,23,0,0,0-2.23-2.06v3.31h-5.73l-.28,1.41H1024v10.76c0,1.84-.33,2.92-1.59,3.56s-2.77.65-4.86.65a15.93,15.93,0,0,0-1.26-3.85c1.08.07,2.45,0,2.85,0s.54-.11.54-.47v-.94l-2.27.69c0-.33-.07-.69-.14-1.08-2,.18-3.78.32-5.55.47l-.32-3.28,1,0c.15-.86.29-1.83.43-2.8h-1.58v11.3h-4.14v-15h6.16l.1-1.41h-5.5V407.58h3.52v5.25a16.21,16.21,0,0,0,1.88-1.65c-.62-.36-1.19-.72-1.77-1.05l2-2.19c.54.25,1.08.57,1.69.9.32-.58.65-1.15.9-1.73l3.24.83a20,20,0,0,1-1.41,2.55c.62.44,1.19.87,1.62,1.23l-2,2.48c-.39-.36-.9-.75-1.47-1.19a19.82,19.82,0,0,1-1.52,1.52h5.12v-6.95h3.67v3.78a39.3,39.3,0,0,0,4.64-11.27l4.64,1.12c-.5,1.83-1.15,3.7-1.83,5.5h1.87a46.74,46.74,0,0,0,1.73-6.22l4.86,1c-.65,1.8-1.34,3.6-2,5.18h3v4.65H1037v2.52h2.73v4.35H1037v2.67h2.73v4.35H1037V428h3.52Zm-29.12-18.21h2.16a22.5,22.5,0,0,0-2.16-1.62Zm5.15,8.53c-.21.9-.39,1.8-.57,2.62l.64,0c-.1-.43-.25-.87-.36-1.26l2.63-.65a23.31,23.31,0,0,1,.76,2.48v-3.16Zm16.09-11.7h-2.23v2.52h2.23Zm0,6.87h-2.23v2.67h2.23Zm-2.23,9.79h2.23v-2.77h-2.23Z"/><path d="M1075.84,403.19v4.17h-5.22v5.83h-22.28v-5.83h-5.25v-4.17h5.25v-2.92h5v2.92h3.45v-3.1h5.08v3.1h3.56v-2.92h5.22v2.92Zm-32.22,11.19h31.68v8.35H1072v4.79c0,2.16-.43,3.31-1.9,4s-3.35.71-5.62.71a18,18,0,0,0-1.55-4.35c1.15.07,2.88.07,3.28.07s.65-.11.65-.5v-2.52h-5v9.28h-5.14v-9.28h-3.93v7.13h-5.07v-9.33h-4Zm4.83,4.1v2.34h8.21v-2.34Zm4.86-9.25h3.45v-1.87h-3.45Zm17,9.25h-8.46v2.34h8.46Zm-4.86-11.12h-3.56v1.87h3.56Z"/><path d="M1094.67,405a83,83,0,0,0,9.68-1l0,5c-3.35.44-7.78.76-11.59.9a26.78,26.78,0,0,1-1.41,2.56,17.3,17.3,0,0,1,3.57-.36,5.18,5.18,0,0,1,4.78,2.52c1.44-.68,2.63-1.15,3.89-1.73,1.59-.68,3.06-1.37,4.61-2.12l2.12,5c-1.26.36-3.52,1.18-4.89,1.72s-3.13,1.23-5,2.06c0,2,.11,4.39.14,6h-5.18c.07-.94.14-2.27.18-3.64-2.27,1.33-3.24,2.52-3.24,4s1.12,2.13,4.5,2.13a54.45,54.45,0,0,0,10.47-1.12l-.18,5.61a86.51,86.51,0,0,1-10.4.65c-5.9,0-10.15-1.54-10.15-6.33s4.28-7.71,8.28-9.79a2.64,2.64,0,0,0-2-.76,8.49,8.49,0,0,0-5.29,2.41,39.24,39.24,0,0,0-3.35,4.07l-4.64-3.49a34.07,34.07,0,0,0,7.7-9.29c-1.48,0-4.1-.07-6-.25v-5a47,47,0,0,0,6.48.43h1.4a21.89,21.89,0,0,0,.61-3.92l5.76.47A31.77,31.77,0,0,1,1094.67,405Z"/><path d="M1126.28,420.18c-1,.28-2,.57-3,.82v7.74c0,2.31-.36,3.6-1.66,4.39s-3.06.94-5.54.94a17.33,17.33,0,0,0-1.37-4.75c1.19,0,2.48,0,3,0s.61-.15.61-.65v-6.37l-3.16.82-1-5.07c1.19-.22,2.63-.51,4.21-.86v-5.76h-3.67v-4.79h3.67v-6.55h5v6.55h3v4.79h-3v4.68l2.44-.58Zm14.72,1.76a16.68,16.68,0,0,0,7.92,8,19,19,0,0,0-3.53,4.35,19.43,19.43,0,0,1-7.7-8.57,19.79,19.79,0,0,1-9.18,9,23.11,23.11,0,0,0-3.78-4.21c4.93-2.13,7.45-5.19,8.71-8.5h-6.66v-4.86h3.14a25,25,0,0,0-1.48-6.23l4.17-1a23.27,23.27,0,0,1,1.77,6.3l-3.78,1h3.92c.11-1.22.15-2.45.15-3.63v-3.86h-7v-4.68h7v-4.82h5.4v4.82h7.27v4.68h-7.27v3.89c0,1.19,0,2.38-.15,3.6H1144l-4-1a35.63,35.63,0,0,0,1.87-6.3l4.72,1c-.87,2.34-1.77,4.65-2.49,6.23H1148v4.86Z"/><path d="M1160.08,403.33c2.16,0,5.48-.11,7.24-.25a10.57,10.57,0,0,0,2.84-.61l3.46,2.7a10,10,0,0,0-1.37,1.65,75.67,75.67,0,0,0-3.35,7.24,31.28,31.28,0,0,1,6.66,2c0-.15,0-.29,0-.4a23.05,23.05,0,0,0,0-4.28l5.73.65a57.5,57.5,0,0,1-.65,6.47c1.4.83,2.59,1.59,3.56,2.24l-2.52,6.08c-.86-.79-1.76-1.55-2.73-2.3a18.68,18.68,0,0,1-8.9,9.17l-4.67-3.77c5.25-2.27,7.73-5.44,9-8.39a23.58,23.58,0,0,0-7.52-2.67A69.22,69.22,0,0,1,1163,427a6.86,6.86,0,0,1-6.23,3.52c-3.42,0-6-2.3-6-6.33,0-5.69,5.18-10.08,12.49-10.51.86-2,1.73-4.11,2.41-5.51-1.44,0-3.85.11-5.47.22-.72,0-2.13.18-3.1.32l-.21-5.58C1157.92,403.26,1159.29,403.33,1160.08,403.33Zm-3,21.45c.65,0,1.08-.36,1.69-1.22a38,38,0,0,0,2.31-4.75c-3.32.68-5.19,2.7-5.19,4.53C1155.87,424.32,1156.38,424.78,1157.06,424.78Z"/><path d="M1186.62,425.72l4.57-3.92a63.89,63.89,0,0,1,7.7,7.81l-4.64,4A76.82,76.82,0,0,0,1186.62,425.72Z"/><path d="M786.65,491.49c0,2.63-.54,4.07-2.19,4.9s-4,.93-7.24.93a18.72,18.72,0,0,0-1.69-5.25c1.84.14,4.28.14,5,.11s.9-.18.9-.8V474.14H761.49v23.11h-5.22V469h10a40.94,40.94,0,0,0,1.7-5.9l6.76.93c-.79,1.73-1.62,3.46-2.45,5h14.4Zm-17.6-2V492h-4.71V476.91h14.14v12.6Zm0-8.06V485h4.64v-3.53Z"/><path d="M805.77,468.71c-.21,1-.43,2-.65,2.91,1-.07,1.8-.11,2.45-.11,4.14,0,6.88,1.95,6.88,7.35,0,4.21-.47,10.11-2,13.28-1.22,2.59-3.35,3.49-6.26,3.49a21.62,21.62,0,0,1-4.39-.5l-.94-5.73a23.41,23.41,0,0,0,4.39.76,2.45,2.45,0,0,0,2.45-1.37c.9-1.8,1.33-6,1.33-9.36,0-2.62-1.08-2.95-3.31-2.95-.43,0-1,0-1.73.11-1.44,5.61-4.14,14.33-7.2,19.26l-5.68-2.27c3.41-4.61,5.75-11.45,7.09-16.38-.94.15-1.73.25-2.24.33-1.15.18-3.24.46-4.42.68l-.51-5.87a39.41,39.41,0,0,0,4.21,0c1,0,2.52-.14,4.14-.25a36.19,36.19,0,0,0,.69-7.52l6.48.68C806.27,466.33,806,467.7,805.77,468.71Zm19.37,13.35-5.58,2.56c-.87-4.18-3.28-10.77-5.87-14.08l5.26-2.19A66.26,66.26,0,0,1,825.14,482.06Z"/><path d="M835,472.7c0,2.38,0,4.72.22,7.13.43,4.71,1.15,8,3.24,8,1.66,0,2.92-4.5,3.46-6.95l4.39,5.4c-2.52,6.37-4.83,8.6-8,8.6-4.28,0-7.81-3.63-8.82-13.46-.36-3.42-.39-7.56-.39-9.83a21.73,21.73,0,0,0-.33-3.89l6.7.08A33.47,33.47,0,0,0,835,472.7Zm24.81,14.87L854,489.8c-.5-5.44-2.27-14.9-6.48-19.51l5.58-1.8C856.64,472.63,859.48,482.38,859.81,487.57Z"/><path d="M882.23,488.18a31,31,0,0,1,3,5.9l-3.93,2.34a33.72,33.72,0,0,0-2.69-6,31.46,31.46,0,0,1-4.58,6.83,26,26,0,0,0-3.42-2.62v2.66h-5V480.4c-.51.69-1,1.34-1.52,2a39.64,39.64,0,0,0-2.44-5.76,38.82,38.82,0,0,0,6.8-13.5l4.82,1.44-.25.72h10.55v22.93Zm-11.59,6.05a23.17,23.17,0,0,0,3.86-6.05H873V465.72a62.3,62.3,0,0,1-2.31,5.79Zm11.05-6.05h-6.62l3.35,1.87v0Zm-4.42-16.49h1.83v-2.34h-1.83Zm0,6.2h1.83v-2.38h-1.83Zm0,6.19h1.83v-2.42h-1.83Zm12.2,4.86H885V467.23h4.46Zm6-25.24v27.94c0,2.41-.4,3.78-1.73,4.57s-3.24,1-5.83,1a18.93,18.93,0,0,0-1.41-5c1.52.07,3,.07,3.57.07s.68-.18.68-.68V463.7Z"/><path d="M907.58,469.68a93.84,93.84,0,0,0-1.73,12.85,6.05,6.05,0,0,0,0,.83c.5-1,.93-1.73,1.4-2.78l2.63,2.09a94.42,94.42,0,0,0-2.59,9.25,12.35,12.35,0,0,0-.22,1.73c0,.4,0,1.05,0,1.62l-5,.32a45.85,45.85,0,0,1-1.44-11.84,104,104,0,0,1,1.4-14.18,37.2,37.2,0,0,0,.43-4.07l6.09.51A34.94,34.94,0,0,0,907.58,469.68Zm9.14,17.17c0,1.58,1.51,2.19,4.47,2.19a41.05,41.05,0,0,0,9.07-1l.1,5.91a52.17,52.17,0,0,1-9.46.68c-6.3,0-9.43-2.34-9.43-6.19a20.91,20.91,0,0,1,.65-4.93l5,.43A12.64,12.64,0,0,0,916.72,486.85Zm12.53-18.68v5.61a100.92,100.92,0,0,1-15.84,0l0-5.58A83.12,83.12,0,0,0,929.25,468.17Z"/><path d="M951.25,466.73c-.11.46-.22,1-.29,1.51a55.45,55.45,0,0,0,11.95-1.59l0,5a101,101,0,0,1-12.68,1.26l-.21,2.59a25.61,25.61,0,0,1,5-.5h.22c.14-.76.25-1.55.29-2.06l5.29,1.26c-.15.36-.4,1-.61,1.66,4,1.48,6.84,4.68,6.84,9,0,5.08-2.78,10.26-11.88,11.63l-2.88-4.57c7.2-.79,9.36-4.39,9.36-7.31a4.69,4.69,0,0,0-3-4.35,26.64,26.64,0,0,1-7.3,10.47c.25.86.5,1.73.79,2.56l-5,1.47c-.15-.36-.26-.79-.4-1.22a13.26,13.26,0,0,1-5.29,1.22c-2.77,0-5.18-1.65-5.18-5.65,0-4.64,3.67-9.5,8.74-11.95.07-1.37.18-2.74.33-4.07h-.58c-2.09,0-4.9-.18-6.69-.25l-.15-5a60,60,0,0,0,7,.51h.86c.08-.51.15-1,.18-1.44a16.27,16.27,0,0,0,.11-2.41l5.62.14C951.53,465.47,951.39,466.11,951.25,466.73Zm-8.35,22.71a6.23,6.23,0,0,0,2.84-.86,52.56,52.56,0,0,1-.68-6.23c-2.24,1.73-3.6,4-3.6,5.54C941.46,488.9,941.82,489.44,942.9,489.44Zm7.34-4.46a19.27,19.27,0,0,0,3.63-5.55,17.5,17.5,0,0,0-4,.65A47.06,47.06,0,0,0,950.24,485Z"/><path d="M981.56,470.72c1.87-2.27,4.68-4.5,8.42-4.5,5.15,0,9.29,5,9.29,13.11,0,10.29-6.19,15.37-16.09,17.2l-3.31-5.07c8.1-1.26,13.46-3.6,13.46-12.13,0-5.48-1.84-8-4.39-8-4.1,0-7.6,6.3-7.6,11.05a30.41,30.41,0,0,0,.22,3.46l-5.36.36a41.91,41.91,0,0,1-.47-6.16,88.18,88.18,0,0,1,.93-11.48,40.11,40.11,0,0,0,.29-4.14l5.94.25A53.72,53.72,0,0,0,981.56,470.72Z"/><path d="M1027.17,467.09c0,.28,0,.64,0,1a78.09,78.09,0,0,0,8.75-.94l0,5a88.07,88.07,0,0,1-8.79.76c0,1,0,2.05,0,3,3.7-.18,6.58-.51,9.36-.83l0,5.11c-3.17.32-5.8.54-9.22.65.08,1.15.15,2.37.22,3.6a27.23,27.23,0,0,1,9.86,5.36l-3.13,4.86a27.51,27.51,0,0,0-6.44-4.68v.72c0,3.38-2.74,5.69-7.49,5.69-6.08,0-9.21-2.41-9.21-6.41s3.45-6.59,9.18-6.59c.61,0,1.18,0,1.76.07,0-.82-.07-1.69-.11-2.52H1020c-1.91,0-6-.18-8.32-.46l-.07-5.11a62.6,62.6,0,0,0,8.46.68h1.62c0-1,0-2,0-2.95h-1.15a84.15,84.15,0,0,1-8.64-.65l-.1-4.93a68.19,68.19,0,0,0,8.71.79h1.22v-1.22a13.72,13.72,0,0,0-.25-2.63h5.9C1027.31,465.21,1027.21,466.22,1027.17,467.09Zm-7.88,24.37c1.83,0,2.84-.51,2.84-2.34,0-.26,0-.62,0-1.05a17,17,0,0,0-2.7-.21c-2,0-3.17.79-3.17,1.8C1016.23,490.84,1017.42,491.46,1019.29,491.46Z"/><path d="M1065.19,468.13v.4c3.34,0,8.17-.08,10,0l-.07,5.15c-2.13-.11-5.51-.18-10.05-.22,0,1.73,0,3.57,0,5.08a9.2,9.2,0,0,1,1.4,5.14c0,4.61-3,10.88-12,13.32l-4.65-4.64c3.14-.65,6.12-1.51,8.25-3.17a3.6,3.6,0,0,1-.65,0,6.68,6.68,0,0,1-6.37-6.91c0-4.36,3.49-7,7.66-7a8.82,8.82,0,0,1,.91,0c0-.61,0-1.22,0-1.83-5.4.07-10.73.29-15.12.5l-.14-5.22c4.17,0,10.54-.11,15.19-.18a1.43,1.43,0,0,1,0-.39c-.14-1.73-.29-3.06-.39-3.6h6.29C1065.37,465.25,1065.22,467.48,1065.19,468.13Zm-6.52,16.23c1.15,0,2.38-.82,2-3.56a2.32,2.32,0,0,0-2-1,2.19,2.19,0,0,0-2.3,2.34A2.27,2.27,0,0,0,1058.67,484.36Z"/><path d="M1090.39,490.88a6,6,0,1,1-6-6A6,6,0,0,1,1090.39,490.88Zm-3,0a3,3,0,1,0-3,3A3,3,0,0,0,1087.36,490.88Z"/><path d="M779.2,593.29l-9.9,9.9,9.9,9.9-.87.87-9.9-9.9L758.5,614l-.87-.87,9.93-9.93-9.9-9.9.87-.87,9.9,9.9,9.9-9.9Zm-19.32,12.15a2.25,2.25,0,1,1,2.25-2.25A2.27,2.27,0,0,1,759.88,605.44Zm6.3-10.8a2.25,2.25,0,1,1,2.25,2.25A2.27,2.27,0,0,1,766.18,594.64Zm4.5,17.1a2.25,2.25,0,1,1-2.25-2.25A2.27,2.27,0,0,1,770.68,611.74Zm6.3-10.8a2.25,2.25,0,1,1-2.25,2.25A2.27,2.27,0,0,1,777,600.94Z"/><path d="M795.07,598c-1.17,6.84-3.27,14.55-8.1,19a19,19,0,0,0-2.34-2c4.53-4,6.45-11.28,7.2-17.4Zm8.91-6.39c.84,9.75,2.7,18.69,8.25,23a15.14,15.14,0,0,0-2.73,2.25c-5.31-4.65-7.26-13.08-8.19-22.32H791.08v-2.94Z"/><path d="M841.87,612.88v2.76H815.08v-2.76h11.85v-8.49h-9v-2.73h9v-7.59H816.55v-2.73h23.76v2.73H829.87v7.59h9.39v2.73h-9.39v8.49Z"/><path d="M872,605.35H859.93v8.19c0,1.71-.42,2.52-1.68,3a20.67,20.67,0,0,1-6,.48,11.76,11.76,0,0,0-1.2-2.88c2.25.09,4.5.06,5.19.06s.81-.18.81-.69v-8.16H844.9v-2.79H857v-4.77h1.62a35.09,35.09,0,0,0,5.28-3.66H848V591.4h18.87l.63-.18,2.1,1.59a45,45,0,0,1-9.66,7.26v2.49H872Z"/><path d="M889.78,596.08v3.66h9.51v10.32c0,1.47-.33,2.28-1.41,2.73s-2.82.48-5.25.48a10.06,10.06,0,0,0-1-2.76c1.8.09,3.57.09,4.08.06s.66-.15.66-.57v-7.53h-6.63V617H886.9V602.47h-6.15v10.86H878V599.74h8.94v-3.66H875v-2.7h11.88v-4.11h3v4.11h12.09v2.7Z"/><path d="M912.82,590.26a55,55,0,0,1-2.34,5.91v20.76h-2.64V601a26.78,26.78,0,0,1-2.4,3.3,21.6,21.6,0,0,0-1.38-2.94,34.86,34.86,0,0,0,6.18-11.85Zm4.38,21a25.54,25.54,0,0,1-3.93,5.55,17.86,17.86,0,0,0-2-1.56,16.64,16.64,0,0,0,3.6-5.19Zm4.68-1.59h-8.61V591.19h8.61Zm-2.46-16.23h-3.81v3.21h3.81Zm0,5.37h-3.81V602h3.81Zm0,5.34h-3.81v3.27h3.81Zm.84,5.91a28.28,28.28,0,0,1,2.64,4.86l-2.13,1.29a29.35,29.35,0,0,0-2.52-5.07Zm6.09.12h-2.46V592.57h2.46Zm5-20.34v23.88c0,1.5-.33,2.28-1.17,2.7s-2.22.54-4.35.54a9.66,9.66,0,0,0-.81-2.67c1.47.06,2.79.06,3.21.06s.57-.15.57-.6V589.84Z"/><path d="M946.45,593.14c-.18.93-.45,2.37-.72,3.78,1.23-.12,2.31-.18,3-.18,2.91,0,5.1,1.17,5.1,5.37,0,3.54-.45,8.37-1.71,10.89-1,2.07-2.52,2.61-4.62,2.61a16.87,16.87,0,0,1-3.57-.42l-.48-3.12a15.62,15.62,0,0,0,3.66.6,2.35,2.35,0,0,0,2.46-1.44c.9-1.86,1.35-5.67,1.35-8.79,0-2.58-1.17-3-3.06-3-.63,0-1.62.06-2.76.18-1.11,4.41-3.24,11.34-6.21,16.14l-3.09-1.23c3-4,5.16-10.53,6.24-14.61-1.38.15-2.61.3-3.3.39s-2.13.27-3,.42l-.3-3.24c1,.06,1.89,0,2.91,0s2.58-.15,4.29-.3a33.53,33.53,0,0,0,.69-6.45l3.51.36C946.72,591.7,946.57,592.48,946.45,593.14ZM962.59,605l-3,1.38c-.84-3.18-3.09-8.55-5.19-11.1l2.79-1.2A52,52,0,0,1,962.59,605Z"/><path d="M972,604.33a14.44,14.44,0,0,1,9.36-3.33c4.89,0,7.95,3,7.95,6.54,0,5.4-4.56,9.3-16.29,8.31l-.9-3.09c9.27,1.17,13.95-1.32,13.95-5.28,0-2.22-2.07-3.81-4.95-3.81a11.26,11.26,0,0,0-8.85,3.81,6.1,6.1,0,0,0-1,1.59l-2.76-.66A112.52,112.52,0,0,0,970,596.08l3.18.42C972.76,598.39,972.25,602.5,972,604.33Zm13.26-11.22-.69,2.91c-2.94-.39-9.54-1.77-11.85-2.37l.75-2.85A87.92,87.92,0,0,0,985.24,593.11Z"/><path d="M1011.73,605.2a29,29,0,0,0,10.65,8.31,13.68,13.68,0,0,0-2,2.37,32.26,32.26,0,0,1-10.53-9V617H1007V606.91a32,32,0,0,1-10.5,8.88,13.41,13.41,0,0,0-2-2.34,29,29,0,0,0,10.74-8.25h-10v-2.7H1007v-7H996.61v-2.67H1007v-3.45h2.94v3.45h10.59v2.67H1009.9v7h11.79v2.7Zm-10.41-9.3a21.37,21.37,0,0,1,2.7,5.46l-2.64,1a21.84,21.84,0,0,0-2.52-5.58Zm11.61,5.73a37.2,37.2,0,0,0,2.82-5.82l2.91.87a53.64,53.64,0,0,1-3.33,5.76Z"/><path d="M1032.73,592.27c1.56,0,8.4-.18,10-.33a8.94,8.94,0,0,0,1.92-.27l1.65,2.16c-.63.39-1.26.81-1.89,1.29-1.53,1.14-5.22,4.26-7.35,6a12.43,12.43,0,0,1,3.6-.51c5,0,8.73,3.09,8.73,7.29,0,4.77-3.81,8.19-10.56,8.19-4.14,0-6.9-1.83-6.9-4.56,0-2.22,2-4.23,5-4.23a5.92,5.92,0,0,1,6.24,5.25,4.87,4.87,0,0,0,3.18-4.71c0-2.82-2.76-4.86-6.51-4.86-4.8,0-7.62,2.25-11.16,6l-2.19-2.22c2.34-1.92,6.09-5.07,7.86-6.54s5.16-4.26,6.66-5.58c-1.59.06-6.78.3-8.34.39-.75,0-1.53.09-2.22.18l-.09-3.09A21.79,21.79,0,0,0,1032.73,592.27Zm5.58,21.12a16,16,0,0,0,2.13-.12c-.24-2.19-1.56-3.72-3.54-3.72a2,2,0,0,0-2.19,1.71C1034.71,612.58,1036.18,613.39,1038.31,613.39Z"/><path d="M1064.29,607.42c-3,1.53-6.24,3.15-8.76,4.35l-1.08-2.79c1.08-.42,2.43-1,3.9-1.62v-8.94h-3.3v-2.64h3.3v-6.06h2.58v6.06h3v2.64h-3v7.8l2.76-1.26Zm5.82-3.54a13.81,13.81,0,0,1-1.11,1.8h12.54s0,.69-.06,1.05c-.48,6-.93,8.34-1.74,9.24a2.61,2.61,0,0,1-1.8.84,23.62,23.62,0,0,1-3,0,5.51,5.51,0,0,0-.63-2.25,20,20,0,0,0,2.34.12c.45,0,.69,0,.93-.33.45-.51.84-2.22,1.2-6.45H1077c-1.2,3.48-3.54,7.23-6,9.12a9,9,0,0,0-2-1.56,17.4,17.4,0,0,0,5.7-7.56h-2.37a23.05,23.05,0,0,1-7.14,7.83,7.74,7.74,0,0,0-1.86-1.68,19.42,19.42,0,0,0,6.48-6.15h-2.52a20.37,20.37,0,0,1-3.69,3.21,15.12,15.12,0,0,0-1.89-1.74,16.1,16.1,0,0,0,5.67-5.52h-3.84v-2.37h18.75v2.37Zm10-3.81h-13.86v-9.84h13.86Zm-2.58-7.83h-8.76v2h8.76Zm0,3.84h-8.76v2h8.76Z"/><path d="M1099.63,589.48a33.27,33.27,0,0,0,13,10.47,12.38,12.38,0,0,0-1.83,2.49,39.08,39.08,0,0,1-4.86-3v2.13H1091v-2a40.87,40.87,0,0,1-4.83,3.06,10.72,10.72,0,0,0-1.71-2.22c5.13-2.61,10-7.11,12.33-10.86Zm-10.35,15.45h18.48V617h-2.85v-1.17H1092V617h-2.73Zm16.14-5.88a34.34,34.34,0,0,1-7.08-6.84,32.09,32.09,0,0,1-6.75,6.84Zm-13.41,8.4v5.88h12.9v-5.88Z"/><path d="M1114.84,609.79l2.46-2.16a55.36,55.36,0,0,1,6.63,6.63l-2.55,2.16A54.76,54.76,0,0,0,1114.84,609.79Z"/><path d="M791.56,663.1c1.35,2.07,3.78,3,7.08,3.15s10,.06,13.74-.21a10.65,10.65,0,0,0-.9,2.76c-3.39.18-9.45.24-12.87.12-3.78-.18-6.39-1.2-8.28-3.48-1.38,1.23-2.85,2.43-4.44,3.72l-1.41-2.79c1.35-.84,2.91-2,4.35-3.09v-5.1H785V655.6h6.57Zm-1.41-9.48a20.47,20.47,0,0,0-5.1-3.66l1.83-1.8a20.09,20.09,0,0,1,5.19,3.48Zm.9-5.91a19.54,19.54,0,0,0-4.8-3.78l1.89-1.71a20,20,0,0,1,4.92,3.57Zm9.78-1.47H794v-2.58h16.71v2.58h-7.08v5.22h8.19v2.64h-8.19v7.32c0,1.47-.39,2.22-1.44,2.64a14.57,14.57,0,0,1-5,.48,11.68,11.68,0,0,0-1.08-2.61c1.71.06,3.48.06,4,0s.66-.15.66-.57V654.1h-8v-2.64h8Z"/><path d="M841,643.06v26.4h-3v-1.62H818.8v1.62h-2.88v-26.4Zm-3,22.17V645.91H818.8v19.32ZM834.25,650v11H822.43V650Zm-2.79,2.46h-6.39v6.12h6.39Z"/><path d="M850.24,658.87c.87-2.67.87-8.52.87-12a9.35,9.35,0,0,0-.24-2.43h3.48a22.45,22.45,0,0,0-.15,2.4c0,3.42-.12,9.81-.93,12.81a16.85,16.85,0,0,1-5.34,8.4l-2.88-1.92A13.89,13.89,0,0,0,850.24,658.87Zm8.85,5.67V646.78a22,22,0,0,0-.18-2.4h3.48a18.07,18.07,0,0,0-.15,2.4v16.59a21.1,21.1,0,0,0,8.16-6.9l1.83,2.58A31.57,31.57,0,0,1,862,667.33a9.33,9.33,0,0,0-1.14.75l-2-1.65A8.65,8.65,0,0,0,859.09,664.54Z"/><path d="M880.81,653.89h16.32c1.44,0,2.61-.12,3.36-.18v3.72c-.66,0-2-.15-3.36-.15H880.81c-1.65,0-3.45.06-4.47.15v-3.72C877.33,653.77,879.19,653.89,880.81,653.89Z"/><path d="M913.24,647a21.72,21.72,0,0,0-.27-3.36h3.69c-.09,1-.21,2.31-.21,3.36v4.68a101.69,101.69,0,0,1,12.69,4.8l-1.35,3.27a78.55,78.55,0,0,0-11.34-4.68v9.27a35.15,35.15,0,0,0,.24,3.84H913a31.41,31.41,0,0,0,.24-3.84Z"/><path d="M938.47,646.84c2.19-.21,7.53-.72,13-1.2,3.21-.27,6.21-.45,8.28-.51v3a28.91,28.91,0,0,0-5.85.42,10,10,0,0,0-6.63,9c0,5.46,5.1,7.29,10,7.5l-1.08,3.21c-5.88-.3-12-3.45-12-10.05a12,12,0,0,1,5.1-9.75c-3,.3-10,1-13.38,1.74l-.3-3.27C936.82,647,937.87,646.9,938.47,646.84Zm19.47,8.79-1.86.84a28.37,28.37,0,0,0-2.4-4.2l1.8-.78A41.88,41.88,0,0,1,957.94,655.63Zm3.42-1.35-1.83.87A28.15,28.15,0,0,0,957,651l1.8-.81A43.33,43.33,0,0,1,961.36,654.28Z"/><path d="M979.6,668.23l-1.77-2.82a18.54,18.54,0,0,0,2.67-.42c3.84-.87,7.26-3.69,7.26-8.52,0-4.35-2.64-7.8-7.26-8.37a59.74,59.74,0,0,1-1.8,8.43c-1.8,6.12-4.29,9.51-7.26,9.51s-5.7-3.3-5.7-8.31c0-6.72,5.88-12.48,13.41-12.48,7.2,0,11.76,5,11.76,11.31S986.89,667.18,979.6,668.23Zm-8.07-5.76c1.35,0,2.76-2,4.14-6.57a47.76,47.76,0,0,0,1.65-7.74c-5.4.87-8.55,5.55-8.55,9.27C968.77,660.88,970.24,662.47,971.53,662.47Z"/><path d="M1000.87,661.63c0,2.13,2.1,3.6,6.72,3.6a39.81,39.81,0,0,0,10.35-1.17l0,3.3a44.58,44.58,0,0,1-10.29,1c-6.45,0-9.93-2.16-9.93-6.09a18.38,18.38,0,0,1,.6-4.23l3.09.3A11.52,11.52,0,0,0,1000.87,661.63Zm6.84-15.24c2.91,0,6.12-.18,8.34-.42v3.12c-2.07.18-5.52.36-8.34.36-3.06,0-5.64-.12-8-.33V646A76.63,76.63,0,0,0,1007.71,646.39Zm11.58.51-2,.87a30.56,30.56,0,0,0-2.4-4.17l2-.81A43.47,43.47,0,0,1,1019.29,646.9Zm3.48-1.29-1.95.87a31.38,31.38,0,0,0-2.46-4.14l1.92-.81A46.55,46.55,0,0,1,1022.77,645.61Z"/><path d="M1041.91,662.41a28.36,28.36,0,0,0,10.65,4.35,12.3,12.3,0,0,0-1.77,2.34,27.37,27.37,0,0,1-11-5.73v6.06H1037v-5.91a26.65,26.65,0,0,1-10.8,5.55,12,12,0,0,0-1.71-2.25,26.9,26.9,0,0,0,10.47-4.41h-9.84V660.1H1037v-2.31h2.79v2.31h12.12v2.31Zm-12.6-8c.78-.84,1.65-1.92,2.58-3.06h-6.3v-2.25h8c.66-.9,1.32-1.77,1.89-2.58l2.61.75c-.42.6-.87,1.2-1.35,1.83h14.61v2.25h-5.52A9.64,9.64,0,0,1,1043,655c2.7.72,5.16,1.5,7,2.19l-1.68,1.95a72.21,72.21,0,0,0-8-2.58c-2.91,1.26-7,2-13.08,2.43a7.51,7.51,0,0,0-.9-2.16,58.4,58.4,0,0,0,10.08-1.29c-1.38-.36-2.73-.66-4-.93l-.51.6Zm-.84-5.94h-2.58v-4.41H1037v-2.13h2.79v2.13h11.28v4.41h-2.67v-2.07h-20Zm6.57,2.88c-.39.51-.81,1-1.2,1.53,1.92.36,4,.81,6.12,1.32a7.2,7.2,0,0,0,2.91-2.85Z"/><path d="M1080.55,666c0,1.65-.39,2.49-1.5,2.94s-3,.51-5.61.51a11.2,11.2,0,0,0-1-2.82c2,.09,4,.09,4.56.06s.75-.18.75-.72V649.66h-7.92a24,24,0,0,1-.48,3.69,90,90,0,0,1,7.95,7.92l-2.28,1.83a71.81,71.81,0,0,0-6.54-7.05,16,16,0,0,1-7,7.53,10,10,0,0,0-2-2.1c6.24-3.3,7.26-8,7.41-11.82h-7.8v19.86h-2.79V647H1067v-5h2.88v5h10.65Z"/><path d="M1091.14,646.63a72,72,0,0,0-1.47,11.31,29.6,29.6,0,0,0,.18,3.21c.51-1.23,1.11-2.7,1.59-3.81l1.5,1.2c-.78,2.28-1.83,5.49-2.13,7a5.86,5.86,0,0,0-.15,1.38c0,.3,0,.75.06,1.11l-2.73.18a38.12,38.12,0,0,1-1.11-9.69,86.57,86.57,0,0,1,1.29-12,21.81,21.81,0,0,0,.27-2.49l3.33.3A21.51,21.51,0,0,0,1091.14,646.63Zm7.17,15c0,1.35,1,2.46,4.68,2.46a32.22,32.22,0,0,0,7.47-.81l.06,3.21a41.16,41.16,0,0,1-7.59.6c-5.1,0-7.44-1.77-7.44-4.68a15.19,15.19,0,0,1,.51-3.69l2.7.24A10.42,10.42,0,0,0,1098.31,661.66Zm11.28-15.15v3.06a76.46,76.46,0,0,1-12.57,0l0-3.06A55.28,55.28,0,0,0,1109.59,646.51Z"/><path d="M1126.12,647.53a28.68,28.68,0,0,0,4.41-1l.09,2.76a40.27,40.27,0,0,1-5.37,1.08,53.68,53.68,0,0,1-6.51,12.75l-2.88-1.47a45.05,45.05,0,0,0,6.3-11c-.75,0-1.47.06-2.19.06-1.14,0-2.4,0-3.6-.09l-.21-2.79c1.17.12,2.61.18,3.81.18,1,0,2,0,3.09-.12a24.48,24.48,0,0,0,.87-5.13l3.3.33C1127,644.17,1126.57,645.85,1126.12,647.53Zm8.16,8.4c0,1,.12,2.73.21,4.44a19.55,19.55,0,0,1,6.21,3.78l-1.59,2.55a23.41,23.41,0,0,0-4.5-3.36v.84c0,2.55-1.53,4.62-5.49,4.62-3.48,0-6.3-1.5-6.3-4.62,0-2.82,2.55-4.8,6.27-4.8a17.2,17.2,0,0,1,2.55.21c-.09-2.37-.24-5.19-.3-7.17h2.94C1134.22,653.68,1134.25,654.73,1134.28,655.93Zm-5.55,10.14c2.28,0,3-1.26,3-2.88,0-.27,0-.63,0-1a10.44,10.44,0,0,0-2.79-.39c-2,0-3.33.9-3.33,2.13S1126.69,666.07,1128.73,666.07Zm4.17-16.71,1.53-2.31a53.11,53.11,0,0,1,7.2,4l-1.71,2.49A38.15,38.15,0,0,0,1132.9,649.36Z"/><path d="M1152.58,650.65c1.32-2.73,4.2-5.94,7.83-5.94,4.08,0,7.11,4,7.11,10.47,0,8.37-5.22,12.21-12.87,13.62l-1.8-2.73c6.57-1,11.49-3.45,11.49-10.89,0-4.68-1.59-7.74-4.44-7.74-3.66,0-7,5.4-7.26,9.36a13.89,13.89,0,0,0,.12,3.45l-2.94.21a37.71,37.71,0,0,1-.33-4.86,79.16,79.16,0,0,1,.87-9.66,26.06,26.06,0,0,0,.24-2.85l3.27.15A58.06,58.06,0,0,0,1152.58,650.65Z"/><path d="M1190.77,645.13c0,.36,0,.93-.06,1.59a65.92,65.92,0,0,0,7.89-.84v2.76c-2.22.27-5,.54-7.92.66V653c3-.12,5.61-.39,8.22-.75l0,2.79c-2.76.33-5.25.54-8.13.66.06,1.38.15,2.82.21,4.17a24.09,24.09,0,0,1,8.61,4.59l-1.74,2.67a23.07,23.07,0,0,0-6.72-4.38c0,.63.06,1.14.06,1.56,0,2.28-1.65,4.35-5.58,4.35-4.5,0-6.93-1.68-6.93-4.68s2.67-4.83,7.14-4.83c.78,0,1.5.06,2.22.12,0-1.17-.09-2.4-.12-3.51h-1.65c-1.92,0-5.25-.15-7.32-.39l0-2.82a58.65,58.65,0,0,0,7.41.54h1.53v-3.69h-1.23c-2,0-5.58-.3-7.53-.54l0-2.73a54.35,54.35,0,0,0,7.53.66h1.29V645a9.84,9.84,0,0,0-.15-1.89h3.21C1190.86,643.63,1190.8,644.29,1190.77,645.13ZM1185.19,666c1.68,0,3-.51,3-2.43,0-.42,0-1,0-1.68a13.59,13.59,0,0,0-2.73-.27c-2.55,0-3.93,1-3.93,2.19S1182.61,666,1185.19,666Z"/><path d="M1222.42,645.34c0,.36,0,.9,0,1.5h9l-.06,2.82c-1.77-.09-4.62-.15-9-.15,0,1.62,0,3.36,0,4.71a7.39,7.39,0,0,1,1,4c0,4-2.13,8.7-9.24,10.77l-2.55-2.52c3.54-.78,6.3-2.1,7.74-4.41a4.7,4.7,0,0,1-2.1.45,5,5,0,0,1-5-5.22,5.42,5.42,0,0,1,5.58-5.4,6,6,0,0,1,1.68.21c0-.78,0-1.68,0-2.55-4.56.06-9.48.24-13.2.48l-.09-2.88c3.39-.06,9-.21,13.26-.27,0-.66,0-1.17-.06-1.53-.09-1-.18-1.89-.24-2.19h3.45A17.48,17.48,0,0,0,1222.42,645.34Zm-4.62,14.55c1.56,0,2.73-1.23,2.34-4a2.47,2.47,0,0,0-2.34-1.44,2.7,2.7,0,0,0-2.73,2.82A2.63,2.63,0,0,0,1217.8,659.89Z"/><path d="M1243.93,664.42a4.7,4.7,0,0,1-9.39,0,4.7,4.7,0,1,1,9.39,0Zm-1.8,0a2.88,2.88,0,1,0-2.88,2.88A2.88,2.88,0,0,0,1242.13,664.42Z"/></g></g></g></svg>