<?xml version="1.0" encoding="iso-8859-1"?>
<!-- Generator: Adobe Illustrator 19.0.0, SVG Export Plug-In . SVG Version: 6.00 Build 0)  -->
<svg version="1.1" id="Capa_1" xmlns="http://www.w3.org/2000/svg" xmlns:xlink="http://www.w3.org/1999/xlink" x="0px" y="0px"
	 viewBox="0 0 490.667 490.667" style="enable-background:new 0 0 490.667 490.667;" xml:space="preserve">
<g>
	<g>
		<path d="M416,0H96C70.251,0,48.704,18.347,43.755,42.667h30.912c5.888,0,10.667,4.779,10.667,10.667S80.555,64,74.667,64h-32H32
			c-5.888,0-10.667,4.779-10.667,10.667S26.112,85.333,32,85.333h10.667V128h32c5.888,0,10.667,4.779,10.667,10.667
			s-4.779,10.667-10.667,10.667h-32H32c-5.888,0-10.667,4.779-10.667,10.667S26.112,170.667,32,170.667h10.667v42.667h32
			c5.888,0,10.667,4.779,10.667,10.667s-4.779,10.667-10.667,10.667h-32H32c-5.888,0-10.667,4.779-10.667,10.667S26.112,256,32,256
			h10.667v42.667h32c5.888,0,10.667,4.779,10.667,10.667S80.555,320,74.667,320h-32H32c-5.888,0-10.667,4.779-10.667,10.667
			S26.112,341.333,32,341.333h10.667V384h32c5.888,0,10.667,4.779,10.667,10.667s-4.779,10.667-10.667,10.667h-32H32
			c-5.888,0-10.667,4.779-10.667,10.667c0,5.888,4.779,10.667,10.667,10.667h10.667v10.667c0,29.419,23.936,53.333,53.333,53.333
			h320c29.419,0,53.333-23.915,53.333-53.333v-384C469.333,23.936,445.419,0,416,0z M170.667,245.333
			c0,5.888-4.779,10.667-10.667,10.667s-10.667-4.779-10.667-10.667v-40.149l-1.131,2.261c-3.627,7.232-15.467,7.232-19.093,0
			L128,205.184v40.149c0,5.888-4.779,10.667-10.667,10.667s-10.667-4.779-10.667-10.667V160c0-4.949,3.413-9.259,8.213-10.389
			c4.779-1.131,9.771,1.195,11.989,5.611l11.797,23.595l11.797-23.573c2.197-4.459,7.189-6.784,11.989-5.632
			c4.8,1.131,8.213,5.44,8.213,10.389V245.333z M234.667,192c5.888,0,10.667,4.779,10.667,10.667s-4.779,10.667-10.667,10.667
			h-21.333v21.333h32c5.888,0,10.667,4.779,10.667,10.667S251.221,256,245.333,256h-42.667c-5.888,0-10.667-4.779-10.667-10.667V160
			c0-5.888,4.779-10.667,10.667-10.667h42.667c5.888,0,10.667,4.779,10.667,10.667s-4.779,10.667-10.667,10.667h-32V192H234.667z
			 M341.333,245.333c0,4.949-3.413,9.259-8.213,10.389c-0.811,0.192-1.643,0.277-2.453,0.277c-3.968,0-7.701-2.219-9.536-5.888
			l-22.464-44.928v40.149c0,5.888-4.779,10.667-10.667,10.667s-10.667-4.779-10.667-10.667V160c0-4.949,3.413-9.259,8.213-10.389
			c4.779-1.131,9.771,1.195,11.989,5.611L320,200.149V160c0-5.888,4.779-10.667,10.667-10.667s10.667,4.779,10.667,10.667V245.333z
			 M426.667,224c0,17.643-14.357,32-32,32s-32-14.357-32-32v-64c0-5.888,4.779-10.667,10.667-10.667
			c5.888,0,10.667,4.779,10.667,10.667v64c0,5.888,4.8,10.667,10.667,10.667s10.667-4.779,10.667-10.667v-64
			c0-5.888,4.779-10.667,10.667-10.667c5.888,0,10.667,4.779,10.667,10.667V224z"/>
	</g>
</g>
<g>
</g>
<g>
</g>
<g>
</g>
<g>
</g>
<g>
</g>
<g>
</g>
<g>
</g>
<g>
</g>
<g>
</g>
<g>
</g>
<g>
</g>
<g>
</g>
<g>
</g>
<g>
</g>
<g>
</g>
</svg>
